<svg width="165" height="49" fill="none" xmlns="http://www.w3.org/2000/svg"><path d="M136.945 41.7h-.917v1.092h.917v5.44h1.413V41.7h-1.413Zm.459-.917a.826.826 0 0 0 0-1.652.844.844 0 0 0-.651.239.913.913 0 0 0-.211.587.858.858 0 0 0 .211.596.843.843 0 0 0 .651.23Zm-45.242.917h-1.12v6.533h1.414V44.36a1.53 1.53 0 0 1 .422-1.138 1.487 1.487 0 0 1 1.12-.431 1.386 1.386 0 0 1 1.063.413c.266.303.405.698.386 1.1v3.928h1.413v-3.734a3.569 3.569 0 0 0-.587-2.23 2.175 2.175 0 0 0-1.835-.761h-.065c-.46-.019-.917.1-1.312.339-.369.244-.649.602-.798 1.018 0 .129-.092.266-.128.413l.027-1.578Zm-3.266-2.312h-1.45v8.845h1.45v-8.845ZM77.354 27.58c.45-.762.587-1.936.312-1.881a37.549 37.549 0 0 1-4.716 2.752 49.996 49.996 0 0 1-7.56 2.377c-4.588.917-6.258.651-6.258.651.311-.695.76-1.32 1.321-1.835a1.119 1.119 0 0 1 1.322.055 2.294 2.294 0 0 0-.175-1.99 6.808 6.808 0 0 0-2.128-.533 6.421 6.421 0 0 0-1.79-.11c-.367.083-4.486 2.349-6.083 2.468a17.538 17.538 0 0 1-4.376-.679c-4.588-1.284-9.441-3.954-13.23-6.193A79.328 79.328 0 0 1 20.404 12.45C13.707 6.138 11.661 1 11.23.752c-.275-.174-.67.248-.477 1.991a13.23 13.23 0 0 0 3.11 7.092 26.238 26.238 0 0 0 1.836 2.046C7.816 6.67 6.98 1.34 6.22.551c-.358-.368-1.01 1.32-.44 3.67.568 2.348 1.834 5.275 6.358 8.752C2.963 8.542 2.045 4.716 1.293 4.615c-.45-.092-1.12 1.835-.23 3.615 1.092 2.22 4.294 4.963 8.69 6.762C4.622 13.845.42 11.377.081 11.679c-.34.303.422 2.074 1.486 3.028.734.652 3.34 2.193 7.542 3.23-4.312-.165-6.478-.698-6.33-.138.339.764.906 1.405 1.623 1.835a12.266 12.266 0 0 0 5.184 1.349c-.762.082-3.422.395-3.45.706-.027.312.202.56.56.918 16.12 15.423 27.277 18.79 27.277 18.79-3.56 1.404-8.129 2.138-8.257 2.643-.129.504 1.835 1.789 3.927 2.44 2.043.648 4.193.894 6.33.725.707-.137 2.661-.303 7.79-3.67a30.277 30.277 0 0 0 10.762-2.11 72.063 72.063 0 0 0 11.24-5.854c.917-.11 2.468.45 3 .312s.367-.312-.083-.734c-.29-.295-.596-.574-.917-.835 0 0 .091-.055.12-.092a8.505 8.505 0 0 0 3.944.505c.918-.082 1.689-.982 1.542-1.01a23.14 23.14 0 0 1-3.67-.724l.137-.083c2.973 0 4.487-.706 5.386-1.376.752-.56.844-1.009.67-1.064-.174-.055-1.174.275-3 .45 1.348-.79 3.615-1.964 4.431-3.34h.028Zm19.175 8.257 2.083-8.844h-1.431l-1.66 7.597h-.35l-1.715-7.249h-1.68l-1.504 7.248h-.358l-1.835-7.596h-1.495l2.312 8.844h2.358l1.404-6.422 1.532 6.422h2.34Zm4.836-7.67a.79.79 0 0 0 .211-.587.785.785 0 0 0-.242-.618.778.778 0 0 0-.63-.208.788.788 0 0 0-.642.239.807.807 0 0 0-.211.587.799.799 0 0 0 .211.587.814.814 0 0 0 .642.23.838.838 0 0 0 .661-.23Zm-1.12 7.67h1.422v-6.532h-2.376v1.091h.918l.036 5.441Zm1.294 12.478h.982v-1.23h-1.065a1.007 1.007 0 0 1-.761-.274 1.033 1.033 0 0 1-.275-.78v-3.257h2.128v-1.056h-2.128V39.82h-1.34v1.9h-1.082v1.055h1.082v3.137c-.024.497.074.991.285 1.44.175.347.472.615.834.753.439.155.903.226 1.368.211h-.028Zm2.395-12.478h1.422v-8.844h-2.285v1.091h.863v7.753Zm4.422 7.863c.084.206.142.422.174.642h-3.615c.026-.19.079-.375.156-.55.119-.325.337-.605.624-.798a2.057 2.057 0 0 1 2.056 0c.272.18.483.44.605.743V43.7Zm.147-1.706a3.174 3.174 0 0 0-1.753-.459 3.275 3.275 0 0 0-1.422.284 2.94 2.94 0 0 0-1.009.762c-.267.32-.472.688-.605 1.083-.129.4-.194.818-.193 1.238v.23c-.001.417.064.832.193 1.229.133.395.338.762.605 1.083.282.33.633.592 1.028.77.466.201.97.298 1.477.285.481.01.96-.08 1.404-.266a2.612 2.612 0 0 0 1.559-1.927h-1.321c-.08.293-.271.543-.532.697-.33.213-.718.319-1.11.303a1.94 1.94 0 0 1-1.12-.303 1.697 1.697 0 0 1-.633-.807 2.757 2.757 0 0 1-.201-.853h5.037v-.57a3.72 3.72 0 0 0-.349-1.587 3 3 0 0 0-1.055-1.192Zm3.78-9.175a2.13 2.13 0 0 1-.275 1.1c-.171.297-.418.54-.716.707a1.971 1.971 0 0 1-.982.239 1.993 1.993 0 0 1-1.046-.266 1.903 1.903 0 0 1-.715-.78 2.593 2.593 0 0 1-.266-1.202c-.005-.412.083-.82.257-1.193a1.96 1.96 0 0 1 .706-.789 1.9 1.9 0 0 1 1.046-.284c.341-.006.678.073.982.229.298.153.549.385.725.67.199.314.299.683.284 1.055v.514Zm.239 3.055h1.128v-8.845h-1.422v3.294a2.229 2.229 0 0 0-.918-.862 2.812 2.812 0 0 0-1.348-.321 3.05 3.05 0 0 0-1.276.256c-.375.168-.71.416-.981.725a3.303 3.303 0 0 0-.643 1.074 3.832 3.832 0 0 0-.22 1.312v.23c-.005.45.073.898.23 1.32.149.395.373.756.66 1.065.28.306.62.55 1 .715.405.177.843.264 1.285.257.469.003.931-.107 1.348-.32.426-.23.776-.578 1.01-1.001a1.93 1.93 0 0 0 .119-.239l.028 1.34Zm2.66 5.808h-.229a2.307 2.307 0 0 0-1.835.697 2.553 2.553 0 0 0-.569 1.386v-2.01h-1.128v6.533h1.422V44.82a1.894 1.894 0 0 1 .486-1.404 1.943 1.943 0 0 1 1.413-.486h.431l.009-1.248Zm1.358-9.707c.036-.191.088-.378.156-.56.125-.324.346-.602.633-.798a2.032 2.032 0 0 1 2.055 0c.272.178.483.433.606.734.086.208.142.427.165.651l-3.615-.027Zm0 .917h5.037v-.569a3.536 3.536 0 0 0-.358-1.578 2.843 2.843 0 0 0-1.046-1.193 3.107 3.107 0 0 0-1.761-.458 3.31 3.31 0 0 0-1.422.284c-.39.174-.736.434-1.01.762a3.257 3.257 0 0 0-.596 1.073 3.835 3.835 0 0 0-.202 1.248v.23a3.78 3.78 0 0 0 .202 1.229c.129.392.331.756.596 1.073.282.33.633.593 1.028.77.466.204.97.304 1.477.294.481.007.959-.083 1.404-.266.398-.17.75-.43 1.028-.761.269-.34.452-.74.532-1.165h-1.312c-.086.29-.275.538-.532.697a2.266 2.266 0 0 1-2.23 0 1.724 1.724 0 0 1-.642-.817 3.05 3.05 0 0 1-.193-.853Zm4.395 15.36h1.413v-3.735a3.514 3.514 0 0 0-.596-2.23 2.14 2.14 0 0 0-1.835-.761h-.019a2.35 2.35 0 0 0-1.312.34 2.047 2.047 0 0 0-.798 1.018 4.161 4.161 0 0 0-.128.413v-1.578h-1.12v6.532h1.413V44.38a1.522 1.522 0 0 1 .422-1.137 1.467 1.467 0 0 1 1.11-.432 1.413 1.413 0 0 1 1.074.413c.266.303.404.698.385 1.101l-.009 3.927Zm5.505-17.773h.44v-1.238h-.229a2.322 2.322 0 0 0-1.835.697 2.492 2.492 0 0 0-.569 1.385v-2.01h-1.128v6.534h1.367v-3.469a1.73 1.73 0 0 1 .499-1.397 1.725 1.725 0 0 1 1.4-.493l.055-.009ZM128 45.83a1.837 1.837 0 0 1-.248.917 1.265 1.265 0 0 1-.569.468c-.227.094-.47.14-.715.138a1.45 1.45 0 0 1-.973-.294 1.018 1.018 0 0 1-.339-.798 1.028 1.028 0 0 1 .339-.807c.275-.22.622-.328.973-.303H128v.679Zm.055-3.936a4.653 4.653 0 0 0-1.642-.248h-1.331l-.578.046v1.22h2.248a1.233 1.233 0 0 1 .917.312 1.271 1.271 0 0 1 .322.918v.119h-1.496a4.109 4.109 0 0 0-1.468.23 2.023 2.023 0 0 0-.917.688 1.961 1.961 0 0 0-.331 1.165c-.012.4.087.797.285 1.147.194.32.483.573.825.724.393.173.819.258 1.248.248a2.51 2.51 0 0 0 1.165-.248c.315-.16.576-.41.753-.715a2.21 2.21 0 0 0 .202-.468v1.266h1.119v-4.083a2.87 2.87 0 0 0-.321-1.477 1.833 1.833 0 0 0-.973-.808l-.027-.036Zm4.459-6.01h1.413v-3.798a3.612 3.612 0 0 0-.587-2.23 2.164 2.164 0 0 0-1.835-.761h-.055a2.36 2.36 0 0 0-1.322.348 2.055 2.055 0 0 0-.798 1.01c-.05.134-.09.272-.119.412v-1.578h-1.129v6.533h1.413v-3.826a1.588 1.588 0 0 1 .422-1.147 1.524 1.524 0 0 1 1.12-.431 1.366 1.366 0 0 1 1.064.422c.265.3.404.692.385 1.092l.028 3.954Zm1.514 12.478h.981v-1.23h-1.091a1.048 1.048 0 0 1-.771-.275 1.08 1.08 0 0 1-.266-.78V42.82h2.128v-1.055h-2.128v-1.899h-1.349v1.9h-1.073v1.054h1.073v3.138c-.02.496.078.99.285 1.44.178.347.479.615.844.753.438.155.902.227 1.367.211Zm2.697-16.377c.036-.191.088-.378.156-.56a1.72 1.72 0 0 1 .633-.798 1.836 1.836 0 0 1 1.055-.294c.352-.009.7.084 1 .266.272.178.483.434.606.734.085.21.143.428.174.652h-3.624Zm0 .917h5.037v-.569a3.663 3.663 0 0 0-.348-1.578 2.941 2.941 0 0 0-1.055-1.192 3.104 3.104 0 0 0-1.753-.46 3.277 3.277 0 0 0-1.422.285c-.394.171-.743.432-1.018.762a3.432 3.432 0 0 0-.597 1.073 4.1 4.1 0 0 0-.202 1.248v.23c.003.417.071.832.202 1.229.133.39.335.754.597 1.073a2.87 2.87 0 0 0 1.036.771 3.46 3.46 0 0 0 1.468.294c.482.008.959-.083 1.404-.266a2.594 2.594 0 0 0 1.569-1.927h-1.321c-.086.29-.275.538-.532.697a2.265 2.265 0 0 1-2.23 0 1.723 1.723 0 0 1-.642-.816 3.05 3.05 0 0 1-.193-.854Zm5.569 10.102a2.298 2.298 0 0 1 2.248 0c.312.197.563.476.725.807.177.356.265.75.257 1.147a2.53 2.53 0 0 1-.248 1.138 1.829 1.829 0 0 1-.725.807c-.341.21-.736.316-1.137.303a2.082 2.082 0 0 1-1.138-.303 1.912 1.912 0 0 1-.716-.807 2.542 2.542 0 0 1-.247-1.138c-.008-.397.08-.79.257-1.147.159-.333.41-.613.724-.807Zm1.12-1.532a3.677 3.677 0 0 0-1.487.284 3.26 3.26 0 0 0-1.11.752c-.298.313-.532.68-.688 1.083a3.434 3.434 0 0 0-.229 1.248v.248c-.001.423.076.843.229 1.238a3.158 3.158 0 0 0 1.78 1.835c.971.38 2.048.38 3.019 0a3.18 3.18 0 0 0 1.101-.752 3.34 3.34 0 0 0 .908-2.312v-.257a3.297 3.297 0 0 0-.917-2.33 3.358 3.358 0 0 0-1.111-.753 3.614 3.614 0 0 0-1.486-.284h-.009Zm1.009-9.854a.633.633 0 0 1-.248-.532.75.75 0 0 1 .321-.615c.271-.18.593-.268.918-.248a1.6 1.6 0 0 1 .973.257.93.93 0 0 1 .348.633h1.294a1.84 1.84 0 0 0-.734-1.514 3.193 3.193 0 0 0-1.881-.514 3.289 3.289 0 0 0-1.321.248 2.038 2.038 0 0 0-.918.688c-.222.324-.334.71-.321 1.101a1.615 1.615 0 0 0 .587 1.312c.46.348 1.012.552 1.588.588l.642.064c.339.014.67.111.963.284a.676.676 0 0 1 .285.578.784.784 0 0 1-.386.66c-.319.196-.69.289-1.064.267a1.78 1.78 0 0 1-1.156-.303.998.998 0 0 1-.376-.66h-1.303a1.93 1.93 0 0 0 .771 1.532c.6.409 1.32.606 2.046.56.495.011.988-.076 1.449-.258.385-.152.721-.405.973-.733.236-.318.359-.706.349-1.102a1.62 1.62 0 0 0-.643-1.366 3.474 3.474 0 0 0-1.752-.606l-.642-.064a1.577 1.577 0 0 1-.78-.257h.018Zm5.01 10.092h-1.092v6.533h1.413V44.37a1.54 1.54 0 0 1 .422-1.138 1.462 1.462 0 0 1 1.11-.43 1.415 1.415 0 0 1 1.073.412c.266.303.405.698.386 1.101v3.927h1.413v-3.734a3.569 3.569 0 0 0-.597-2.23 2.138 2.138 0 0 0-1.835-.761h-.064a2.35 2.35 0 0 0-1.312.34 2.047 2.047 0 0 0-.798 1.017 4.44 4.44 0 0 0-.129.413l.01-1.578Zm1.541-10.092a.633.633 0 0 1-.248-.532.75.75 0 0 1 .321-.615c.271-.18.593-.267.918-.248.343-.021.684.069.972.257a.835.835 0 0 1 .349.633h1.294a1.84 1.84 0 0 0-.734-1.514 3.166 3.166 0 0 0-1.881-.514 3.328 3.328 0 0 0-1.321.248 1.965 1.965 0 0 0-.918.688 1.834 1.834 0 0 0-.33 1.101c-.01.25.038.498.139.725.102.228.256.429.448.587.461.347 1.012.55 1.587.588l.643.064c.34.012.671.11.963.284a.664.664 0 0 1 .284.578.773.773 0 0 1-.385.66 1.834 1.834 0 0 1-1.064.267 1.734 1.734 0 0 1-1.147-.303.922.922 0 0 1-.376-.66h-1.23a1.931 1.931 0 0 0 .771 1.532 3.293 3.293 0 0 0 2.055.56c.493.011.983-.076 1.441-.258.384-.152.72-.405.972-.733.239-.317.365-.705.358-1.102a1.621 1.621 0 0 0-.651-1.367 3.48 3.48 0 0 0-1.753-.605l-.633-.064a1.59 1.59 0 0 1-.789-.257h-.055Zm8.826 14.175c0 .322-.086.639-.247.918a1.25 1.25 0 0 1-.56.468 1.91 1.91 0 0 1-.716.137c-.351.023-.7-.081-.981-.293a1.01 1.01 0 0 1-.34-.798 1.043 1.043 0 0 1 .34-.808 1.43 1.43 0 0 1 .981-.303h1.523v.68Zm.23 2.432h1.128V44.14a2.957 2.957 0 0 0-.321-1.477 1.9 1.9 0 0 0-.972-.808 4.748 4.748 0 0 0-1.652-.248h-1.358l-.587.046v1.22h2.248a1.096 1.096 0 0 1 .932.309 1.106 1.106 0 0 1 .316.93v.12h-1.487a4.168 4.168 0 0 0-1.477.229 2.075 2.075 0 0 0-.917.688c-.23.344-.346.752-.331 1.165-.009.402.093.799.294 1.147.192.319.477.572.817.725.392.173.818.257 1.247.248.406.012.809-.073 1.175-.248.311-.163.569-.411.743-.716a2.21 2.21 0 0 0 .202-.468v1.22Zm4.541 0v-8.845h-2.293v1.092h.862v7.753h1.431Z" fill="#004432"/></svg>