<svg viewBox="0 0 2000 1000" xmlns="http://www.w3.org/2000/svg"><path id="tree1_right" d="M1703.944 649.51c-5.552-1.264-14.876-5.923-26.064-13.005-22.057-14.048-26.127-16.28-39.256-21.4-15.886-6.17-41.225-12.473-72.21-18.25-13.916-2.625-25.47-4.857-25.732-4.988-.132-.263 1.181-3.939 2.888-8.272 6.696-16.673 9.059-30.59 10.635-64.594.919-17.593 1.969-22.057 3.807-16.018 1.182 3.676 6.958 7.878 11.028 7.878 5.12 0 9.322-3.414 9.322-7.615 0-1.97.394-4.858.788-6.565.656-2.363 1.181-2.626 2.626-1.444 4.332 3.545 8.402-3.808 8.402-15.624 0-10.897 1.182-10.503 24.289 6.696 11.553 8.797 29.277 22.714 39.387 31.247 10.11 8.403 23.5 20.613 29.54 27.046 6.446 6.756 14.211 16.353 20.55 25.055v-51.28a310.48 310.48 0 0 0-4.926-5.022l-12.867-13.13 2.1-4.857c2.1-5.248 9.17-13.077 15.693-17.8V76.95c-.13.14-.245.272-.331.39-1.576 1.97-1.707 1.182-1.838-4.989 0-10.372-1.05-13.129-4.727-13.129-2.1 0-4.07 1.444-6.04 4.595-1.706 2.495-3.281 4.595-3.675 4.595s-1.838-1.838-3.02-3.938c-2.363-3.939-8.271-7.878-11.816-7.878-.919 0-3.282 1.707-5.252 3.676-3.938 4.07-6.17 10.241-6.17 17.33 0 3.545-.394 4.07-1.313 2.626-2.363-3.413-5.252 2.232-5.383 10.372 0 6.302-.263 6.959-1.576 4.858-5.645-9.19-11.422-11.028-15.23-4.726-1.312 2.1-2.625 3.544-3.15 3.15-1.182-1.181-5.908.788-10.11 4.333l-3.938 3.282v-4.595c0-2.494-.92-5.251-1.97-6.17-1.707-1.445-2.757-1.05-6.302 2.363-2.363 2.363-4.726 4.201-5.251 4.201-.525 0-2.757-1.313-4.99-2.888l-3.938-2.889-4.726 4.858c-2.495 2.757-4.99 4.727-5.515 4.595-8.402-4.464-8.14-4.332-10.634-1.313-1.313 1.576-2.626 2.889-3.02 2.889-.262 0-1.313-3.283-2.232-7.221-3.282-13.786-9.847-19.563-13.391-11.685q-1.576 3.414-3.02-2.232c-1.97-8.14-4.727-8.14-12.473 0-7.22 7.615-7.877 7.221-7.877-5.252 0-9.452-1.182-9.846-12.21-3.02-4.201 2.627-8.009 4.333-8.403 3.94-.393-.394-1.05-3.677-1.444-7.353-.263-3.676-1.181-6.958-1.838-7.352-.656-.525-4.07 2.232-7.615 5.777l-6.433 6.696-1.444-4.858c-.788-2.626-1.707-5.646-2.1-6.565-.92-3.02-5.515.788-9.716 8.01-2.889 5.12-3.939 6.038-3.939 3.807 0-1.707-.788-2.889-1.97-2.889-2.625 0-5.513 4.858-6.695 11.029-.788 4.332-1.05 4.726-2.232 2.625-1.707-3.282-6.302-8.402-7.615-8.402-1.707 0-3.807 8.271-3.807 15.36 0 6.565-.132 6.96-2.495 5.646-3.807-1.97-4.07-1.707-4.07 3.282 0 5.12-.262 5.252-3.938 3.02-3.414-2.232-4.333-.919-4.99 7.221l-.525 6.959-4.332-.526c-3.939-.525-4.201-.262-3.676 2.758.656 3.02.262 3.282-3.808 3.15-4.07-.262-4.464 0-5.514 5.12l-1.182 5.515-10.11.525c-7.22.394-11.553 1.444-14.835 3.414l-4.726 2.757-.92-2.889c-1.18-3.807-4.463-7.483-6.695-7.483-1.05 0-3.676 1.707-5.646 3.808l-3.807 3.807-1.444-4.464c-.92-2.494-2.232-4.464-3.151-4.464-3.02 0-8.271 4.99-9.978 9.453-1.05 2.363-1.838 4.464-2.101 4.727-.131.262-1.707-1.05-3.545-2.889-1.97-1.838-4.333-3.413-5.514-3.413-3.151 0-8.534 5.908-9.322 10.503-1.312 6.433-2.888 5.777-3.807-1.707-1.182-9.715-2.363-11.291-5.777-8.271-1.575 1.444-2.757 3.413-2.757 4.595-.131 1.182-1.182 0-2.363-2.495-1.838-3.676-3.02-4.595-6.17-4.595-3.02 0-4.333.92-6.565 4.858l-2.757 4.858-4.858-15.361c-4.464-14.442-11.554-29.147-13.786-29.147-2.494 0-6.958 6.565-9.321 13.26l-2.364 7.09-4.2-13.391c-2.233-7.353-4.727-13.786-5.515-14.18-2.363-1.575-4.726 1.839-7.09 10.241q-2.363 8.14-3.544 3.939c-2.364-9.19-10.241-7.615-10.241 1.97l-.132 4.857-1.969-3.676c-3.676-6.827-7.615-2.626-7.746 8.271 0 4.201-.525 7.352-1.05 6.958-1.182-.656-4.858 1.97-4.858 3.545 0 .525 2.1 4.07 4.726 7.878 4.596 6.564 4.596 6.827 2.364 10.24-2.889 4.727-7.353 9.453-8.665 9.453-.526 0-1.051-.919-1.051-1.97 0-1.18-1.444-2.756-3.282-3.544-4.858-2.232-9.453.394-12.473 7.09-2.1 4.857-2.494 5.12-2.494 2.232-.132-1.839-.92-4.464-1.97-5.777-1.706-2.363-1.969-2.363-8.796 1.05-6.04 3.151-7.09 3.414-8.009 1.576-1.575-2.758-2.888-2.495-7.614 1.575-3.94 3.282-4.596 3.414-9.716 1.97-7.615-2.101-9.059.13-8.271 12.078.787 11.291.13 13.786-3.151 12.998-2.1-.525-2.495 0-2.495 3.413 0 2.232-.525 4.07-1.313 4.07-.656 0-1.313-.656-1.313-1.312 0-2.232-12.078-9.19-16.017-9.19-4.726 0-6.827 3.938-6.04 11.947.394 3.544.526 6.433.263 6.433s-1.97-1.444-3.938-3.283c-4.464-4.2-9.06-4.2-11.685-.13-1.838 2.888-1.838 3.675-.132 7.745 1.576 4.07 1.576 4.596 0 3.939-1.05-.394-2.757.131-3.938 1.05-2.626 2.101-1.576 8.403 2.888 17.2 2.495 4.857 2.757 6.301 1.313 6.301-1.05 0-2.232 1.182-2.757 2.495-.788 2.494-.92 2.363-6.302-.657-9.978-5.645-16.674-3.544-16.674 5.252v3.413l-2.626-2.625c-2.888-2.889-8.008-5.252-11.29-5.252-1.314 0-1.838 1.576-1.838 4.99q0 4.988-4.596 4.463c-3.282-.394-4.726 0-5.383 1.576-.394 1.181-1.575 2.1-2.625 2.1-.92 0-2.495 1.182-3.414 2.495q-1.838 2.625-3.414 0c-1.706-2.626-6.827-3.545-6.827-1.182 0 .656-.656 1.313-1.444 1.313-.656 0-.919-.525-.525-1.313 1.444-2.232-1.97-11.685-4.726-13.26-4.464-2.364-9.06-.263-11.16 4.857-1.05 2.495-1.576 5.252-1.182 6.171.394.92-.262.263-1.444-1.444-3.808-5.12-11.028-3.151-13.523 3.676-.919 2.757-2.1 3.939-3.676 3.676-3.02-.525-6.17 5.908-6.302 12.998 0 6.696-1.181 7.22-3.151 1.444-2.1-5.777-7.483-12.473-12.078-14.836l-3.808-2.1v5.645c0 9.06-1.182 9.847-8.928 6.565-8.927-3.94-9.847-3.808-8.796 1.312l.919 4.07-6.696-.787c-5.383-.657-6.696-.394-6.696 1.181 0 1.05 1.313 2.364 3.02 3.02 2.232.92.656 1.313-6.959 2.232-10.766 1.313-13.128 3.545-8.008 7.877 2.363 2.101 2.363 2.495.525 5.252-1.313 2.1-3.676 3.282-7.746 3.807-3.151.394-8.403 1.05-11.685 1.445-4.989.525-5.908 1.05-5.252 3.02.394 1.312-.13 3.15-1.313 4.07-2.625 2.231-2.494 3.15 1.313 7.614 4.464 5.252 4.202 6.959-.656 5.908-3.676-.656-3.939-.525-3.939 3.545 0 3.282-.525 4.07-1.97 3.414-1.05-.394-2.756-1.182-3.807-1.576-1.181-.394-2.1.525-2.625 2.626l-.788 3.413-5.252-2.625c-7.22-3.676-8.927-3.414-9.846 1.706-.788 4.07-1.182 4.333-5.515 3.808-4.2-.525-4.595-.394-3.676 2.232.788 2.626.394 2.757-6.433 2.757-7.483 0-9.978 1.444-7.483 4.464 1.181 1.444 0 1.969-5.777 2.626-13.26 1.575-17.593 6.039-10.503 10.765 3.938 2.626 4.2 4.464.525 4.464-1.444 0-3.94.657-5.515 1.576q-2.757 1.444-.262 2.363c2.1.787 2.232 1.181.656 1.707-10.372 3.413-14.704 5.514-15.492 7.22-.394 1.182 0 2.364.788 2.626 2.1.657 1.97 2.888-.131 2.888-2.626 0-6.696 4.858-4.727 5.515.788.262-.788 1.181-3.676 2.1-6.827 1.97-12.21 7.09-12.21 11.423 0 3.938 2.888 4.332 10.11 1.312 2.625-1.05 4.857-1.838 4.857-1.706 2.1 5.645 8.403 7.877 14.048 4.989 2.232-1.182 3.02-1.182 3.807 0s2.889 1.444 6.959.919q6.039-.788 6.433 3.413c.394 3.808.92 4.201 6.302 5.252 11.554 1.97 36.761-3.808 36.761-8.665 0-.525 1.05-.131 2.232 1.181 1.838 1.838 3.808 2.1 11.948 1.313 9.19-.787 9.584-.656 8.796 1.838-.656 2.101-.262 2.626 1.97 2.626 2.363 0 2.757.525 2.1 2.889-.394 1.706-.788 3.676-.788 4.595 0 .787-1.181 1.181-2.625.787-2.1-.525-2.757.263-4.07 5.252-1.444 5.777-1.444 5.908-3.939 3.414-1.313-1.313-3.939-2.495-5.777-2.495-2.888 0-3.282.525-3.282 5.252 0 4.989-1.575 6.827-3.282 3.938-2.495-4.07-22.976-4.726-22.976-.656 0 1.313-1.182 1.575-4.464 1.05-6.302-1.05-11.685.525-10.766 2.889.526 1.575-.656 1.969-5.645 1.969-3.414 0-8.14.657-10.503 1.444-4.464 1.576-5.383 4.727-1.707 5.908 1.181.394 3.15 1.05 4.201 1.445 1.444.393 1.05 1.312-1.838 3.282l-3.676 2.757 3.02 1.707c1.706.919 4.595 1.838 6.433 1.838 3.02.13 3.02.262.656 1.313-1.444.525-6.039 1.969-10.24 3.282-6.565 1.838-7.615 2.494-7.221 4.989.262 1.575 1.706 3.414 3.413 4.201 3.545 1.576 3.545 1.97.132 7.746q-2.626 4.596 0 5.908c1.444.788 3.544 1.445 4.857 1.445 1.838 0 1.838.394.525 1.969-2.625 3.151-.262 4.464 8.928 5.383 7.353.787 8.14 1.181 8.14 3.939 0 2.494.92 3.15 4.727 3.938 4.463.788 12.34-.394 17.855-2.757 1.97-.788 2.232-.394 1.576 2.888-1.05 5.252 2.363 8.797 7.22 7.615 3.94-1.05 11.948-6.695 11.948-8.665 0-.656.525-1.182 1.182-1.182.787 0 1.444 2.232 1.706 4.858.263 3.545 1.05 5.12 2.758 5.383 4.595.92 11.29-1.182 15.36-4.464 3.152-2.757 3.94-2.888 3.94-1.313 0 5.515 9.715 3.151 15.098-3.544l3.02-4.07 1.181 4.595c1.576 6.04 6.696 6.302 9.584.525 1.576-3.151 2.626-3.807 5.514-3.545 2.758.394 3.939-.394 5.514-3.545 1.576-2.888 2.758-3.676 4.727-3.15l2.757.787-2.626 2.363c-3.938 3.677-2.1 6.434 4.202 6.434h5.382l-5.776 5.908c-4.858 4.989-5.514 6.17-3.94 7.352 1.051.656 4.859 1.05 8.272.656 3.808-.393 5.908-.13 5.514.657-1.312 2.1 3.414 3.02 7.484 1.444 3.151-1.182 3.808-1.05 3.151.394-.262.919-1.05 3.939-1.575 6.433-.657 4.201-.525 4.727 1.969 4.727 1.575 0 3.807-1.182 4.99-2.495 1.968-2.494 2.231-2.494 3.806-.394 1.445 2.1 1.97 1.97 5.383-1.444 4.596-4.201 5.646-4.464 5.646-.919 0 4.595 5.908 3.282 12.472-2.757l5.909-5.514v9.19l11.422-3.02c7.352-1.969 13.129-2.888 16.28-2.363 3.282.525 6.564 0 11.028-1.97 3.414-1.575 6.696-2.756 7.352-2.756s1.182 2.363 1.182 5.12c0 7.09 1.838 7.746 4.858 1.838 1.706-3.676 3.545-5.12 6.958-6.04 6.17-1.575 7.484-2.756 8.403-8.533 1.181-6.696 3.413-12.079 5.12-12.079.788 0 .92-2.232.525-5.777-.788-4.989-.525-5.908 1.707-6.433 1.575-.394 2.626 0 2.626 1.05 0 3.283 4.464 3.414 10.897.132 6.17-3.02 6.696-3.02 9.978-1.05 2.1 1.312 3.282 3.15 3.02 4.463-.263 1.444.394 2.363 1.575 2.363 1.575 0 1.05 1.445-2.1 6.04-5.121 7.09-3.94 8.796 5.776 8.008l6.17-.525-3.807 4.464c-2.231 2.363-3.938 4.99-3.938 5.646 0 1.575 11.028 3.15 16.017 2.1 3.282-.656 3.808-.525 2.495 1.05-1.182 1.445-1.182 2.101.13 2.889 2.89 1.838 14.049.919 17.594-1.444 3.282-2.1 3.413-2.1 2.494.525-.787 2.494-.262 2.757 4.858 2.757 3.151 0 7.877-1.181 10.635-2.494 3.807-1.97 4.857-2.101 4.857-.657 0 2.626 12.998 2.495 16.674-.131 2.495-1.838 2.757-1.707 3.414 1.97 1.05 4.595 7.483 8.533 12.21 7.352 3.02-.788 4.201-2.626 6.433-9.19.525-1.97 1.05-2.233 2.232-1.051.92.919 2.626 1.575 3.939 1.575 2.757 0 3.02 1.445.919 3.545-.92.92-1.182 2.495-.657 3.808.657 1.706 2.1 2.1 7.221 1.575 5.908-.525 6.302-.394 5.12 1.576-.787 1.313-1.05 3.282-.525 4.595 1.182 3.282 9.19 1.707 16.149-3.282 4.99-3.414 5.646-3.545 5.646-1.445 0 1.576 1.312 2.757 3.413 3.283 3.414.919 11.816-1.05 14.18-3.283 2.231-2.1 3.413-1.313 3.413 2.101 0 2.889.525 3.282 5.12 3.282 3.02 0 8.14-1.575 12.867-4.07l7.877-4.07 9.716 4.858c17.067 8.534 34.923 21.532 52.253 37.943 9.06 8.796 21.4 19.3 27.046 23.37 19.956 14.048 29.41 17.461 57.111 20.743 12.342 1.445 94.398 21.532 105.295 25.865 8.272 3.15 12.604 6.564 15.361 11.947 3.414 6.564 4.99 7.877 23.37 17.987 16.805 9.321 29.278 19.3 39.78 31.903 7.353 8.797 16.15 22.188 17.988 27.44 3.02 8.271 18.317-74.96 18.317-74.96Zm-97.092-199.043c1.444 0 3.413-.788 4.201-1.838 1.182-1.313 2.626-1.444 6.565-.394 4.2 1.182 6.433.92 12.735-1.444 5.383-1.97 9.322-2.495 13.26-1.97 4.595.657 5.908.263 8.797-2.625 2.494-2.495 3.413-2.889 3.413-1.444s.788 1.706 3.02 1.05c3.545-1.05 8.796-4.464 8.796-5.646 0-.393 4.333-.787 9.584-.787h9.585l-1.97 3.545c-1.181 1.969-1.575 3.938-.918 4.595.525.525 4.857.919 9.584.788 7.352-.132 8.402.13 7.614 1.969-2.1 4.989-2.232 7.09-.787 8.14 2.363 1.444-9.322 12.341-17.593 16.411-13.786 6.827-32.298 7.877-43.063 2.494-8.534-4.332-22.057-12.866-29.672-18.511-4.464-3.283-5.12-4.333-3.151-4.333Zm-238.554 59.08c-.657 0-1.313-.656-1.313-1.312 0-.788.656-1.313 1.313-1.313.787 0 1.312.525 1.312 1.313 0 .656-.525 1.313-1.312 1.313Zm162.668 27.572c-2.232 11.028-9.846 28.752-15.36 35.973-8.14 10.766-10.373 11.948-25.471 12.341-25.34.92-27.046 0-65.251-34.529-25.077-22.713-25.865-23.632-22.582-24.814 1.838-.656 4.464-1.97 5.776-3.15 1.97-1.839 2.233-1.707 2.233.13 0 4.464 18.118.92 18.511-3.544.132-.788.525 0 1.05 1.838 1.97 7.352 11.948 3.15 11.948-4.99 0-2.362.525-2.887 2.495-2.231 3.544 1.05 4.857-1.707 1.969-3.939-2.232-1.707-2.232-1.838-.263-1.97 1.182 0 2.626.526 3.02 1.314.394.656 2.889 1.313 5.383 1.313 6.433 0 12.341-5.908 12.341-12.342 0-2.625.657-4.726 1.313-4.726.788 0 1.313-.92 1.313-2.1 0-1.576.657-1.839 2.363-1.051 1.182.656 6.04 1.05 10.766 1.181 8.009 0 8.534-.262 10.24-3.676 2.627-5.514.789-13.391-4.594-19.3-3.808-4.332-4.07-5.12-2.101-5.645 1.313-.394 3.151-.394 4.07-.131 1.05.262 3.545.525 5.514.525 2.1 0 4.858 1.182 6.17 2.494 1.576 1.707 3.94 2.495 7.222 2.364 6.433-.132 7.09.787 3.807 5.383-3.413 4.857-3.413 5.514 0 5.514 2.494 0 2.626.525 1.97 4.464-1.05 5.776.787 7.09 10.897 8.14 5.383.656 8.008 1.444 8.008 2.625 0 1.05.525 1.838 1.05 1.838 1.182 0-1.575 29.803-3.807 40.7Z" style="fill: rgb(29, 94, 74); transform-origin: 0px 0px; translate: none; rotate: none; scale: none;" data-svg-origin="1703.9439697265625 390.8219528198242" transform="matrix(1,0,0,1,0,0)"/>
</svg>