<svg xmlns="http://www.w3.org/2000/svg" viewBox="0 0 2000 1000">
  <path d="M1673.193 699.005c-.968-.651-1.937-1.308-2.873-2.047-3.758-2.96-7.198-6.47-9.868-9.225-6.581-6.778-14.275-14.124-19.703-22.126-3.542-5.214-6.106-10.665-6.674-16.498-.692-6.746 2.137-13.772 2.916-20.614.35-3.227.281-6.405-.668-9.527-.566-1.852-1.452-3.68-2.516-5.463-1.533-2.56-3.427-4.98-5.253-7.364-1.278-1.68-3.419-3.725-5.827-5.547-2.49-1.908-5.247-3.542-7.59-4.334-2.095-.694-4.325-.989-6.407-1.635a9.482 9.482 0 0 1-2.104-.85 21.181 21.181 0 0 1-5.56-4.67c-1.675-1.988-2.873-4.207-3.941-6.465.8-.123 1.62-.19 2.408-.337 2.588-.473 5.112-1.088 7.528-1.937 1.3-.474 2.567-.992 3.785-1.602 4.369-2.06 8.277-4.844 12.905-6.494 4.547-1.736 10.462-1.97 15.585-3.113 2.753-.566 5.299-1.395 7.462-2.602 9.068-5.089 16.589-12.943 21.27-21.73 4.628-8.72 6.447-18.382 4.41-27.105-1.036-4.304-3.83-8.234-7.615-11.764-7.804-7.319-19.957-13.213-27.965-18.648-6.332-4.273-6.374-15.105-10.8-22.042-2.465-3.852-6.049-6.698-11.855-7.38-1.624-.18-3.213-.056-4.78.273-.596.094-1.18.236-1.75.426-.081-.084-.15-.12-.243-.202-1.154-.819-3.034-1.147-5.228-1.136-1.589.023-3.358.258-5.01.537-1.352-1.381-2.786-2.73-4.379-4.014-3.597-2.895-8.458-5.43-13.716-7.293-5.264-1.862-10.917-3.052-16.075-3.263-6.243-.261-12.336.384-18.51.263-2.448-.085-4.88-.226-7.359-.67-11.56-1.953-20.453-7.226-31.105-9.503-4.677-1.01-9.672-1.47-15.287-.993-5.645.536-11.721 3.01-16.71 6.477-4.855 3.358-8.65 7.544-10.186 11.49-12.014-3.643-25.594-6.107-39.331-6.821-15.777-.769-31.63.628-45.183 4.765a115.5 115.5 0 0 1-4.432 1.184c-1.496-.212-3.034-.414-4.588-.873-2.204-.564-4.428-.808-6.74-.874-8.147-.164-16.529 2.767-23.671 6.81-8.46 4.778-14.848 11.726-17.387 18.84-1.873-.274-3.778-.385-5.668-.395-7.831-.084-15.832 1.916-22.805 4.242-3.343 1.128-7.172 2.636-9.8 4.847-1.99 1.637-3.345 3.643-3.546 6.154-.193 2.613.027 5.23.476 7.845.99 5.73 3.092 11.451 3.606 17.088.142 1.537.094 3.958-.31 6.151-.267 1.375-.61 2.715-1.238 3.549-.217.263-.597.407-.99.555-1.12.482-2.435.802-3.383 1.243-.697.327-1.216.714-1.797.96-.197.049-.387.095-.685.01-.606-.166-1.178-.446-1.713-.735-1.624-.966-3.1-2.283-4.563-3.184-6.137-3.691-9.215-8.86-10.713-14.624-2.272-8.77-.994-18.772-1.625-27.05-.131-2.064-.423-4.14-.794-6.145-.585-3.053-1.365-6.006-2.16-9.06-.115-.358-.775-1.647-1.526-2.992 2.5-.66 4.98-1.354 7.515-1.923 5.314-1.188 10.682-2.076 15.904-2.457 7.063-.515 13.15-.425 19.352-1.201 4.263-.567 8.576-1.512 13.233-3.326 5.747-2.238 11.253-5.306 15.36-9.135 4.337-4.093 7.12-9.013 7.185-14.633.032-1.893-1.636-6.725-2.251-10.923-.158-1.061-.249-2.087-.152-2.949a6.36 6.36 0 0 1 .244-.95l8.63-5.557c3.85-2.142 8.265-3.269 11.585-5.386 2.672-1.751 4.807-4 5.775-7.482 1.647-5.796-.202-10.374-3.868-14.144-4.826-4.953-13.179-8.42-20.349-11.545-3.067-1.349-6.692-2.876-10.436-3.797-2.878-.714-5.812-1.047-8.624-.73-4.574.433-9.561 2.014-14.404 2.197-2.409.115-4.78-.145-6.946-1.451-1.32-.779-2.009-1.868-2.219-3.022-.268-1.4.079-2.847.804-4.124.486-.851 2.05-2.49 2.55-3.71.427-1.047.374-2.03-.02-2.772-.934-1.763-2.45-2.86-4.382-3.438-1.704-.528-3.827-.64-6.131-.55l-.211-.106c-5.21-2.398-13.528-2.416-18.75-2.873-7.907-.957-17.016.004-25.681 2.166-8.591 2.143-16.712 5.535-22.715 9.562-4.86 3.331-9.06 6.396-13.858 8.978a52.265 52.265 0 0 1-10.1 4.187c-3.129.972-6.377 1.814-9.691 2.36-3.155.505-6.363.762-9.59.553-6.61-.486-11.5-2.072-16.741-2.105-3.755-.03-7.665.66-12.31 2.839-7.49 3.5-12.223 8.685-15.65 14.652-6.96 12.065-7.932 27.7-19.197 37.357-3.418 2.927-6.959 4.365-10.603 5.095-10.828 2.165-22.41-1.197-34.23 3.357-13.587 5.193-25.593 13.93-35.29 24.094-9.624 10.095-16.982 21.576-21.392 32.287-2.399 5.822-4.462 12.19-4.008 18.26.328 4.372 1.924 8.593 5.462 12.394 5.143 5.557 11.054 8.204 17.56 9.082 6.123.813 12.847-.038 20.166-1.557 4.258-.932 8.48-1.75 12.612-2.809 2.854-.8 5.664-1.693 8.414-2.834 6.51-2.685 11.555-5.745 17.382-7.583 3.392-1.088 7.075-1.722 11.598-1.513 2.098.117 3.74.66 5.201 1.456 2.854 1.506 5.06 3.797 7.694 5.828 3.689 2.82 8.44 5.016 13.509 6.244 5.322 1.323 10.96 1.522 16.126.317 10.135-2.363 17.008-7.126 22.393-13.099 2.533-2.803 4.673-5.916 6.709-9.127 5.763 3.002 12.426 5.285 17.87 7.44 13.537 5.347 27.421 8.88 40.457 14.14 5.43 2.188 10.735 4.72 15.783 7.785 8.037 4.906 14.651 11.048 20.577 17.724 9.02 10.113 16.41 21.356 24.524 31.06 4.512 5.397 10.033 10.287 16.065 14.685 9.1 6.688 19.393 12.354 29.301 17.432 6.595 3.37 12.8 8.983 19.53 13.159 2.446 1.517 5 2.756 7.621 3.766-1.889.366-3.748.821-5.65 1.15a193.552 193.552 0 0 1-10.765 1.52 357.216 357.216 0 0 1-16.374 1.576c-5.843.48-12.216.616-18.516.265-6.27-.36-12.447-1.16-17.983-2.694-3.498-.929-7.042-1.638-10.43-2.646-2.093-.59-4.152-1.346-6.086-2.395-3.128-1.7-5.9-3.906-8.349-6.295-3.362-3.298-6.04-6.934-8.285-10.32 1.205-.57 2.42-1.134 3.45-1.807 4.74-3.25 8.023-6.876 9.498-10.693 1.446-3.704 1.468-7.742-1.06-11.684a8.293 8.293 0 0 0-.844-1.104c-.304-.502-.962-.76-1.595-.659-.095-.134-.19-.268-.29-.401-1.145-1.45-2.53-2.84-3.92-4.179-4.082-3.93-8.811-7.492-13.52-11.27-3.887-2.93-8.605-6.18-13.741-8.544-3.584-1.642-7.402-2.912-11.293-3.38-3.064-.406-6.243-.26-9.442.204-6.755.858-13.68 3.069-20.054 3.572-7.862.657-18.493.102-27.137 2.05-6.457 1.414-11.825 4.24-14.57 9.622-.406.78-.69 1.582-.898 2.419-.278 1.167-.413 2.352-.53 3.48-.137 1.5-.034 2.942.272 4.334.292 1.343.794 2.687 1.513 4.084 1.692 3.307 3.887 6.02 6.503 8.474 3.887 3.662 8.65 6.589 13.932 9.65 1.898 1.11 3.581 2.271 5.404 3.294 1.344.773 2.76 1.475 4.348 2.032 3.044 1.092 6.33 1.916 9.726 2.608 4.88.96 9.945 1.56 14.682 2.135 5.257.659 10.446 1.7 15.699 2.097a51.63 51.63 0 0 0 6.292.008c.323.635.647 1.266.877 1.861.302.765.486 1.505.574 2.375.164 1.426.68 2.82 1.374 4.222.898 1.824 2.08 3.632 2.565 5.452.301 1.13.338 2.274-.198 3.452-.446 1.051-1.408 1.81-2.546 2.4-2.034 1.177-4.63 1.914-6.714 2.682l-26.403 9.28c-.037-.07-.068-.138-.105-.208-1.226-2.32-3.937-6.06-7.028-8.974-1.797-1.71-3.67-3.192-5.575-3.985-.676-.255-1.364-.454-2.006-.507a1.566 1.566 0 0 0-1.065.05c-.578-.227-1.154-.4-1.736-.573-2.603-.833-5.288-1.437-7.488-2.21-7.062-2.524-15.77-7.003-24.612-9.356-6.377-1.695-12.803-2.226-18.791-.401-.706.224-1.299.525-1.805.91-.901.691-1.534 1.579-2.373 2.359-4.122 3.622-6.153 8.516-9.51 12.58-1.294 1.625-2.843 3.05-4.853 4.22-2.542 1.457-5.66 1.954-8.853 2.312-3.606.46-7.307.732-10.522 1.724-1.846.554-3.542 1.333-5.023 2.427-1.37 1.067-2.205 2.423-2.655 3.999-.642 2.303-.506 5.046-.686 7.657-.187 2.193-.511 4.314-2.563 5.547-2.138 1.254-5.08 1.184-8.263.65-7.857-1.335-17.052-5.749-22.045-6.89-6.552-1.443-13.059-3.16-19.691-4.268-4.537-.73-9.156-1.228-13.884-1.177-7.42.13-13.32 3.662-17.866 8.592-6.157 6.736-9.775 16.102-11.505 22.075-1.146 3.946-2.167 8.018-2.054 12.023.088 2.808.718 5.587 2.184 8.268 3.734 6.843 10.567 11.255 18.713 14.51 11.304 4.477 25.159 6.551 36.018 10.193 12.297 4.13 21.667 12.22 32.876 17.715 2.989 1.472 6.104 2.757 9.419 3.783 3.003.892 6.247 2.093 9.577 2.906 2.456.555 4.977.936 7.473.853 5.76-.25 10.274-1.768 14.041-4.047 5.338-3.237 9.12-8.139 12.88-13.192 1.335-1.74 3.24-3.303 4.79-4.99.784-.819 1.491-1.672 2.025-2.588 1.357-2.32 1.66-4.96 2.688-7.411a9.235 9.235 0 0 1 .796-1.503c.668-1 1.645-2.024 2.746-2.973 1.732-1.574 3.737-3.057 5.338-4.337 1.753-1.422 3.683-2.52 5.703-3.484 5.115-2.45 10.85-3.846 16.27-6.16 6.32-2.743 12.241-5.232 17.804-8.21 3.729-2.06 7.306-4.293 10.702-7.057.773-.608 1.372-1.33 1.872-2.08 1-1.5 1.552-3.206 2.385-4.718 2.618-4.775 3.482-9.438 3.18-14.026-.03-.456-.158-.907-.21-1.361.448-.065.862-.27 1.286-.42 6.504-1.95 12.974-2.948 19.598-3.147 3.352-.135 6.745-.018 10.125.102 7.91.379 15.895 1.264 23.885 2.042 10.669.965 21.132 1.77 31.606 1.787 7.048.065 14.084-.234 21.224-.976 4.142-.433 8.16-1.254 12.103-2.266 5.784-1.46 11.401-3.351 17.054-4.937 2.7-.762 5.55-1.141 8.32-1.763.743-.181 1.486-.362 2.21-.59 2.65-.803 6.672-1.834 10.48-2.395 1.956-.266 3.852-.414 5.482-.287.21.002.42.056.63.057.247.044.45-.005.678-.008.504.13.987-.067 1.294-.378.123-.011.249-.015.37-.028 1.835-.132 3.5-.485 4.553-.95 1.678-.723 3.496-1.951 5.435-2.895.936-.49 1.929-.836 2.944-.978 1.17-.076 2.342.005 3.542.185 3.38.486 6.838 1.635 10 1.965 3.786.44 7.462.96 11.102 1.488 5.544.85 11.002 1.773 16.677 2.75 23.746 3.751 48.662 5.49 72.337 10.255 10.032 2.01 19.825 4.498 29.208 8.027 3.56 1.334 6.944 2.814 10.23 4.372 5.031 2.389 9.876 5.033 14.855 7.592l45.928 23.232c4.5 2.257 8.71 4.585 13.2 6.634 3.05 1.405 6.213 2.626 9.572 3.746 1.32.414 2.732.855 4.171 1.253-1.078 1.306 53.674-18.822 48.634-24.77Zm-391.42-344.791c.062.035.145.034.2.082.255.225.403.519.522.83l-.897-.134c.083-.256.139-.512.175-.778Zm-15.674-2.548-.02-.048.064.09-.03.007-.014-.05Zm-79.28 343.968c-.827.485-1.633 1.007-2.479 1.462-5.452 2.95-11.302 5.318-17.518 7.983-5.455 2.375-11.234 3.782-16.399 6.244a30.837 30.837 0 0 0-6.527 3.946c-1.625 1.338-3.691 2.837-5.485 4.425-1.3 1.208-2.484 2.386-3.278 3.627a13.582 13.582 0 0 0-1.054 1.932c-.986 2.336-1.242 4.86-2.57 7.016a10.004 10.004 0 0 1-1.626 2.072c-1.65 1.763-3.677 3.357-5.09 5.22-3.633 4.55-7.2 8.98-12.184 11.922-3.098 1.75-6.754 2.902-11.376 3.032-1.935.051-3.87-.263-5.77-.691-3.205-.791-6.319-1.971-9.212-2.838a61.254 61.254 0 0 1-8.574-3.413c-11.444-5.542-21.14-13.657-33.709-17.773-10.808-3.55-24.607-5.534-35.878-9.913-7.233-2.796-13.415-6.634-16.798-12.724-1.282-2.307-1.818-4.638-1.912-7.025-.133-3.739.805-7.58 1.85-11.24 1.6-5.68 4.904-14.603 10.715-20.993 3.757-4.162 8.56-7.269 14.76-7.364 4.413-.079 8.736.388 12.994 1.08 6.54 1.079 12.973 2.812 19.433 4.226 5.03 1.132 14.329 5.573 22.267 6.94 4.426.756 8.473.557 11.455-1.164 1.624-.972 2.645-2.268 3.262-3.78.562-1.46.734-3.11.836-4.79.286-.345.533-.637.858-.755.919-.381 1.98-.01 3.104.135 1.513.207 3.067.196 4.612-.704 2.457-1.384 5.8-2.826 9.25-4.138 3.445-1.257 7.022-2.338 9.976-3.057 4.569-1.112 8.896-.436 13.182-1.061 1.913-.308 3.828-.827 5.755-1.82 4-2.021 7.473-5.38 11.672-7.293 1.676-.775 3.488-1.268 5.515-1.342 2.44-.07 6.77.813 10.963 2.044 4.193 1.232 8.237 2.762 10.045 4.05 5.855 4.18 9.924 8.845 12.688 13.986 2.776 5.191 4.228 10.809 4.849 16.943.218 2.094.277 3.861.157 5.619-.126 1.758-.457 3.463-.98 5.528-.103.444-.425 1.099-.716 1.85l-1.064 2.596Zm14.117-23.844c.252 4.182-.532 8.406-2.917 12.758-.695 1.269-1.19 2.646-1.935 3.927-.402.727-.878 1.42-1.597 1.96-1.761 1.434-3.587 2.704-5.45 3.891.17-.285.348-.557.499-.852.432-.734.709-1.535.844-1.986.576-2.13.924-3.944 1.08-5.763.156-1.819.12-3.643-.061-5.799-.563-6.305-2.006-12.135-4.803-17.477-2.81-5.34-7.037-10.282-13.1-14.672-1.945-1.412-6.27-3.136-10.791-4.496-4.553-1.354-9.278-2.299-11.928-2.23-2.459.075-4.643.711-6.688 1.628-4.248 1.924-7.784 5.247-11.807 7.327-1.621.813-3.23 1.257-4.847 1.493-4.348.692-8.766.04-13.421 1.173-3.053.743-6.733 1.9-10.282 3.235-3.603 1.35-7.069 2.874-9.623 4.333-1.184.708-2.428.435-3.565.292-1.232-.17-2.402-.247-3.461.08.007-.167.019-.334.027-.501.11-2.331.242-4.563 2.015-5.937 1.096-.791 2.357-1.36 3.707-1.793 3.602-1.087 7.866-1.182 11.839-1.835 3.044-.479 5.935-1.235 8.366-2.717a19.798 19.798 0 0 0 5.623-5.035c3.166-4.019 4.946-8.851 8.858-12.475.675-.636 1.186-1.39 1.855-2.023.291-.28.626-.519 1.08-.682 5.325-1.663 11.067-1.123 16.781.367 8.772 2.264 17.43 6.652 24.435 9.085 2.243.763 4.967 1.462 7.667 2.219.78.228 1.554.407 2.316.64.162.118.342.179.552.232.397.114.758.34 1.174.553 1.51.784 3.12 1.964 4.604 3.383 2.817 2.72 5.295 6.202 6.415 8.39 3.302 6.425 6.153 12.802 6.539 19.308Zm276.282-230.202c4.277-2.822 9.373-4.953 14.132-5.325 4.883-.403 9.225.11 13.284 1.008 10.747 2.413 19.75 7.606 31.415 9.585 2.826.517 5.584.684 8.347.745 6.13.13 12.18-.504 18.374-.23 4.547.202 9.508 1.246 14.146 2.894 4.625 1.65 8.908 3.854 12.067 6.385.93.748 1.716 1.554 2.555 2.34-2.84.662-6.1 1.694-9.408 3.257-4.608 2.17-9.14 5.21-12.688 8.536-4.77 4.408-7.574 9.49-6.547 14.374.667 3.19 2.201 5.854 4.285 8.175 3.997 4.422 10.149 7.481 15.873 10.802 4.88 2.845 9.478 5.968 11.512 10.973.635 1.573 2.088 3.368 2.925 5.207.338.755.615 1.473.3 2.18-.697 1.582-2.608 2.729-4.832 3.637-3.814 1.662-8.633 2.573-11.844 3.04-8.55 1.243-17.098 2.172-25.102 4.382-5.45 1.537-10.632 3.688-15.415 6.895-3.444 2.289-6.852 4.98-9.76 7.863-4.59-1.923-8.92-4.304-13.302-6.905 9.734-5.664 17.9-12.949 23.056-20.388 6.846-9.942 4.28-16.65-1.422-21.652-5.734-5.048-17.418-7.86-25.332-11.224l-15.897-6.867c-2.16-.889-1.308-2.772-1.365-4.434-.119-3.586-.183-7.236-1.591-10.507-1.223-2.846-3.268-5.49-6.706-7.691-1.968-1.25-4.428-2.38-7.149-3.289-4.191-1.493-9.152-2.538-12.778-3.75-.135-.046-.287-.08-.422-.126 1.38-3.426 4.92-7.018 9.29-9.89Zm35.833 102.338c4.882 2.926 9.627 5.633 14.67 7.813-2.23 2.783-3.855 5.67-4.399 8.523-.988 5.321 1.278 10.584 9.474 15.03 1.896 1.006 3.883 2.25 5.927 3.272.994.492 2.006.926 3.016 1.256 3.59 1.274 7.694 2.684 11.782 3.889a90.25 90.25 0 0 0 8.305 2.011c2.987.582 5.874.665 8.732.493 2.202-.132 4.383-.437 6.57-.784.444 1.12.948 2.241 1.418 3.397l9.491 19.636c1.042 2.365 2.77 5.14 2.71 7.668-.008 1.364-.617 2.612-2.272 3.643-.805.511-2.061.24-3.31-.031-1.813-.345-3.635-1.001-4.82-1.394-5.23-1.712-10.374-3.445-15.418-5.413-3.318-1.287-6.577-2.641-9.8-4.161-11.641-5.495-23.39-12.325-33.7-20.238-10.253-7.875-19.075-16.779-24.938-26.508-1.817-3.015-4.836-6.366-6.814-9.813-.145-.25-.263-.506-.395-.76 8.298-1.21 16.397-3.84 23.77-7.529Zm-73.409 3.526c1.963-.788 4.052-1.393 6.45-1.545 2.901-.183 5.626.568 8.332 1.324 2.29.638 4.56 1.344 6.832 2.024.156.954.334 1.828.422 2.495.515 3.699 1.398 7.255 2.582 10.79 1.165 3.488 2.625 6.956 4.264 10.38 1.097 2.3 2.54 4.306 4.173 6.16 2.317 2.632 5.036 5.007 7.656 7.722 6.663 6.915 14.486 12.71 22.928 17.884 19.375 11.887 42.19 20.37 62.593 31.38 4.596 2.547 9.797 5.942 14.323 9.817 2.131 1.838 4.03 3.785 5.756 5.722 1.79 2.026 3.399 3.99 4.388 6.107.817 1.74 1.822 4.114 1.504 6.234-.167 1.088-.681 2.104-1.928 2.774-1.86.976-4.036 1.297-6.287 1.269-3.854-.058-7.865-1.02-11.17-1.838-5.094-1.275-9.966-2.917-14.656-4.761-7.179-2.914-13.977-6.287-20.886-9.634-6.361-3.06-12.272-6.493-17.91-10.2-8.536-5.622-16.395-11.776-24.184-18.155-13.74-11.164-25.957-23.799-35.813-37.322-8.821-12.103-15.766-24.997-19.368-38.627Zm-13.524 33.434a214.27 214.27 0 0 1-2.845-11.04c-.395-1.793-.727-3.643-1.046-5.492 1.406 2.824 2.809 5.741 4.686 8.744l18.544 28.38c6.843 9.7 19.03 16.213 27.38 24.97 1.637 1.697 3.14 3.531 4.385 5.48-1.65.14-4.574.432-4.858.397-3.836-.164-10.057-2.73-15.548-4.495.771-.652 1.232-1.422 1.269-2.295.587-.558.77-1.319.2-1.935l-14.356-13.528c-3.917-4.022-7.669-8.87-10.82-13.97-3.119-5.054-5.632-10.361-6.991-15.216Zm-48.354 4.229c5.642-1.112 11.49-2.012 16.902-3.643 4.474-1.3 8.65-3.101 12.383-5.633 3.428-2.33 6.566-5.274 9.645-8.435.319 1.728.558 3.487.975 5.168.77 3.113 1.745 6.228 2.713 9.344 1.623 5.157 4.436 10.705 7.948 16.03 3.474 5.283 7.585 10.254 11.843 14.403l14.492 12.865a2.46 2.46 0 0 1-.57.35c-.783.398-1.953.615-3.26.757-1.83-.268-3.401-.218-4.64.122-3.925-.14-7.892-.68-9.569-1.027-6.166-1.223-11.653-3.135-16.922-5.36-8.198-3.4-15.828-7.514-24.271-11.22l-15.075-5.549a94.87 94.87 0 0 0-9.766-3.908c-4.959-1.674-9.985-2.964-15.32-4.232a17.48 17.48 0 0 1-2.844-.932c-4.17-1.708-8.079-4.423-12.372-5.735-2.262-.707-5.41-.935-8.075-1.491-.922-.195-1.77-.407-2.43-.77-7.077-3.934-13.528-9.907-18.983-16.435-5.343-6.418-9.705-13.347-12.767-19.479l-1.056-4.288c.114-.626-.292-1.106-.863-1.454-.223-1.22-.412-2.45-.396-3.687.038-3.047.816-6.065 2.514-8.626.442-.685 3.09-3.93 4.492-5.715 1.927.931 3.972 1.648 6.227 2.059 5.143.833 9.883.147 13.914-1.52.371.755.725 1.507 1.264 2.277 1.532 2.193 3.535 4.063 5.94 5.677 2.86 1.923 6.282 3.447 9.487 4.971 2.355 1.155 5.098 1.902 5.432 3.916.392 2.576-1.719 5.132-3.494 7.869-2.799 4.296-5.855 8.653-7.12 12.837-1.746 5.82-.672 11.32 5.346 16.455 4.925 4.196 10.743 5.975 16.934 6.458 6.919.516 14.483-1.064 21.342-2.419Zm23.743 30.937-2.602.633c-2.905.708-5.062 1.494-7.63 1.648-1.41.134-2.979-.008-4.884-.435-7.425-1.701-13.905-7.51-21.12-10.415-2.08-.855-4.217-1.487-6.44-1.784-2.761-.323-5.266-1.966-8.036-2.862-.817-.221-1.665-.433-2.536-.536-4.621-.603-9.583-.129-14.457-.775-1.81-.24-3.598-.644-5.36-1.367-1.596-.659-2.918-1.646-4.132-2.765-1.982-1.77-3.643-3.88-5.453-5.64-6.123-5.894-10.963-11.735-14.411-18.07-2.031-3.726-3.502-7.642-4.523-11.788 2.979 4.599 6.436 9.241 10.358 13.51 4.975 5.44 10.606 10.25 16.633 13.602 1.07.63 2.397 1.04 3.869 1.363 2.505.542 5.487.76 7.593 1.399 4.133 1.299 7.855 3.954 11.87 5.648 1.193.495 2.395.884 3.651 1.206 4.302 1.048 8.387 2.097 12.408 3.37 3.873 1.205 7.693 2.631 11.563 4.466 1.019.485 2.055.914 3.122 1.335 3.983 1.544 8.218 2.661 12.066 4.343 2.902 1.266 5.69 2.588 8.45 3.914Zm-115.25-120.593c-.376-2.37-.574-4.732-.377-7.084.118-1.496.962-2.696 2.161-3.67 2.154-1.833 5.36-2.98 8.1-3.91 5.299-1.812 11.234-3.467 17.226-3.93 2.806-.232 5.58-.1 8.331.315-.2 1.724-.227 3.401.02 4.985.554 3.479 2.152 6.652 3.918 9.888 1.543 2.82 3.418 5.663 3.295 9.15.018 2.667-1.777 4.99-3.23 7.386-1.737 2.832-3.376 5.64-4.1 8.54-.581 2.344-.622 4.741.011 7.206-3.478 1.458-7.57 2.04-11.98 1.208-1.843-.39-3.493-1.035-5.066-1.857-2.555-1.316-4.838-3.013-7.032-4.522-2.535-1.634-3.84-4.198-5.658-5.693-.733-.603-1.534-1.08-2.435-1.375-.51-5.478-2.292-11.04-3.183-16.637Zm-94.482-18.013c3.965-1.907 8.157-3.87 12.56-5.361 2.803-.945 5.675-1.749 8.627-2.205 3.099-.48 6.318-.785 9.55-1.095-.232 3.877-.357 7.724.024 11.544.458 4.812 1.688 9.646 4.084 14.563.694 1.402 2.363 4.767 2.939 7.664.174.849.267 1.664.154 2.32-.049.431-.043.796-.435.944-4.488 1.564-10.018.03-15.586-2.387-8.666-3.704-17.281-9.725-22.14-12.523l-9.847-6.244c2.823-2.764 6.061-5.254 10.07-7.22Zm30.663 138.2c-5.142-.373-10.257-1.432-15.39-2.016-4.607-.503-9.529-1.033-14.284-1.918-3.079-.56-6.08-1.244-8.863-2.19-1.302-.468-2.451-1.027-3.527-1.603-1.847-1.017-3.555-2.172-5.452-3.23-5.026-2.81-9.587-5.47-13.303-8.86-2.37-2.147-4.389-4.59-5.945-7.51-.591-1.113-1.04-2.26-1.306-3.401a11.116 11.116 0 0 1-.24-3.451c.076-1.066.184-2.087.42-3.14.15-.613.35-1.237.649-1.834 2.18-4.355 6.59-6.58 11.793-7.794 8.397-1.94 18.77-1.374 26.409-2.082 6.453-.523 13.464-2.753 20.267-3.728 2.8-.368 5.565-.518 8.221-.221 3.472.464 6.818 1.535 9.998 3.014 4.888 2.266 9.34 5.373 13.04 8.191 4.84 3.536 9.658 6.867 13.94 10.591 1.413 1.227 2.748 2.579 4.075 3.88.433.418.859.838 1.284 1.258.097.24.194.53.296.766 1.467 3.467 1.654 6.669.253 9.681-1.46 3.236-4.509 6.126-8.721 8.723-2.418 1.53-5.483 2.592-8.725 3.433-5.151 1.359-10.773 2.151-15.371 3.009-3.209.623-6.37.66-9.519.431Zm128.177 41.916-1.94.473c-2.864.592-5.806.941-8.605 1.675-5.642 1.531-11.247 3.367-17.001 4.82-3.709.955-7.495 1.72-11.397 2.093-6.956.698-13.814.953-20.658.89-10.346-.1-20.648-.891-31.163-1.893-8.082-.756-16.168-1.722-24.168-1.974-3.547-.132-7.08-.11-10.572.112-6.99.444-13.94 1.507-20.532 4.108-.15.052-.314.1-.475.147a37.959 37.959 0 0 0-1.264-4.796c.218-.123.39-.286.437-.482.014.102.052.197-.095.233-.037.009-.035.113-.035.165.038-.009.143.018.204.003 1.936-.419 7.223-.553 8.027-.801 3.917-1.059 8.2-1.892 12.648-2.503 6.514-.957 13.336-1.518 19.64-2.11 3.79-.399 7.602-.698 11.427-.948 8.935-.605 17.9-1.005 26.867-1.565 6.652-.415 13.418-1.014 20.164-1.294 4.442-.191 8.886-.225 13.286.013 2 .142 3.945.35 5.879.612 4.715.685 9.323 1.658 14 2.3 2.299.332 4.975.361 7.69.171 3.9-.215 7.904-.824 11.027-1.374.811-.145 2.176-.425 3.449-.578.708-.068 1.379-.126 1.85-.031.56.08 1.097.189 1.64.296-3.817.481-7.686 1.497-10.33 2.238Zm282.407 58.899a36.857 36.857 0 0 0-6.034 4.669 103.971 103.971 0 0 1-4.655-1.858c-3.895-1.513-7.425-3.273-10.93-5.038-3.599-1.848-7.148-3.655-10.871-5.577l-45.865-23.143c-5.055-2.646-9.96-5.275-15.03-7.707a143.119 143.119 0 0 0-10.647-4.689c-12.834-4.942-26.467-8.17-40.463-10.577-20.574-3.53-41.858-5.21-62.26-8.467-5.736-.908-11.26-1.763-16.865-2.547a290.364 290.364 0 0 0-11.395-1.31c-3.094-.296-6.49-1.355-9.788-1.756-1.767-.25-3.507-.351-5.187-.152-1.341.17-2.642.59-3.91 1.11-2.252 1.019-4.323 2.57-6.227 3.453-.783.348-2.156.525-3.554.603-1.656.142-3.326.181-4.344.115a2.772 2.772 0 0 0-1.406.336c-.135-.067-.25-.147-.393-.213-.944-.45-1.96-.727-2.994-1.051-.619-.164-1.47-.218-2.408-.2-1.614.027-3.52.333-4.585.488-2.975.515-6.789 1.076-10.497 1.298-2.408.167-4.775.167-6.814-.122-4.67-.592-9.279-1.565-13.98-2.202a76.64 76.64 0 0 0-6.256-.624c-4.56-.252-9.14-.185-13.729.042-6.79.291-13.573.947-20.248 1.42-8.967.61-17.91 1.112-26.852 1.77-3.861.259-7.69.615-11.538.975-6.346.655-13.21 1.278-19.766 2.298-4.589.646-9.007 1.512-13.015 2.697-.81.197-6.081.223-7.934.778-.131.032-.209.091-.316.132-.883-2.343-1.983-4.69-3.154-7.043.006-.002.013.002.019 0 6.913-2.573 14.213-4.874 21.343-7.395l5.352-1.932c2.249-.862 5.047-1.7 7.277-2.924 1.778-1.009 3.208-2.247 3.94-3.84.762-1.756.748-3.429.277-5.095-.464-1.668-1.378-3.331-2.347-4.98-.862-1.467-1.797-2.916-2.13-4.406a9.621 9.621 0 0 0-.817-2.21c-.346-.672-.824-1.311-1.272-1.957.836-.1 1.666-.123 2.506-.282 4.752-.894 10.533-1.778 15.83-3.225 1.238-.352 2.379-.804 3.542-1.232 2.273 3.55 5.056 7.389 8.478 10.824 2.644 2.657 5.66 5.065 9.062 6.96 2.202 1.193 4.534 2.092 6.937 2.816 3.414 1.002 7 1.701 10.554 2.669 5.839 1.564 12.376 2.435 18.996 2.761 6.534.348 13.134.155 19.186-.375 4.623-.393 9.222-.831 13.793-1.42 4.59-.593 9.146-1.336 13.682-2.23l8.914-2.17c3.008.777 6.052 1.312 9.134 1.547 13.296 1.058 27.266-2.08 41.204.55 20.208 3.828 40.805 9.237 60.863 13.678a504.204 504.204 0 0 0 15.413 3.162c6.938 1.296 15.791 2.493 23.983 4.323 5.395 1.2 10.499 2.682 14.527 4.74 15.941 8.113 33.876 14.328 50.803 21.574 7.175 3.071 14.2 6.39 20.776 10.08 11.925 6.733 24.704 13.728 38.054 19.87-1.369.692-2.7 1.42-3.969 2.21Zm7.968-4.058c-2.406-1.074-4.834-2.12-7.19-3.255-11.325-5.466-22.211-11.563-32.438-17.35-6.713-3.813-13.837-7.159-21.17-10.35-16.821-7.27-34.619-13.414-50.463-21.552-4.338-2.191-9.87-3.882-15.704-5.186-8.235-1.819-17.138-3.004-24.138-4.338-19.806-3.768-40.423-9.225-60.862-13.677a586.121 586.121 0 0 0-15.433-3.21c-14.142-2.633-28.297.498-41.802-.562-3.222-.21-6.424-.74-9.564-1.652s-6.105-2.442-8.97-4.207c-6.841-4.2-13.17-9.836-19.895-13.28-9.751-4.958-19.889-10.505-28.832-16.97-5.838-4.236-11.189-8.904-15.562-14.073-8.199-9.684-15.69-20.955-24.801-31.046-6.182-6.875-13.107-13.204-21.441-18.193-5.26-3.172-10.738-5.715-16.378-7.956-13.09-5.193-27.01-8.667-40.602-13.948-5.49-2.168-12.213-4.384-17.97-7.401 3.683-6 7.217-12.196 12.054-17.544l9.557 6.512c5.658 3.39 16.345 11.368 26.512 14.865 5.43 1.873 10.747 2.464 15.186.912 2.208-.747 3.28-2.736 3.096-5.363-.233-3.453-2.478-8.144-3.35-9.922-1.791-3.65-2.853-7.267-3.483-10.832-.848-4.79-.922-9.584-.789-14.493.976-.113 1.964-.185 2.927-.327 2.62-.376 5.177-.894 7.625-1.647 4.18-1.254 8.612-2.551 13.136-3.8.561 1.246 1.052 2.438 1.133 2.789.805 2.946 1.622 5.89 2.26 8.877.414 1.942.754 3.902.946 5.898.712 8.365-.263 18.449 1.913 27.347 1.55 6.38 4.706 12.159 11.37 16.455 1.42.911 2.841 2.242 4.441 3.266.885.57 1.823 1.023 2.783 1.26 1.25.377 2.237.347 3.097.137.939-.228 1.739-.737 2.81-1.207 1.109-.48 2.682-.81 3.912-1.372.845-.362 1.54-.846 2.048-1.441.914-1.113 1.608-2.853 2.02-4.787.28-1.231.447-2.54.53-3.762 1.52 1.699 2.798 3.994 5.111 5.688 1.513 1.02 3.09 2.06 4.72 3.057-1.398 1.742-4.35 5.366-4.833 6.085-2.013 2.952-2.981 6.435-3.06 9.963-.048 2.63.525 5.208 1.383 7.675.18.586.384 1.179.61 1.774.086.192.115.407.206.596l.027.05c.317.86.6 1.693.653 2.404.658 8.01 2.865 15.016 6.545 21.61 3.642 6.499 8.75 12.588 15.172 18.62 2.159 2.04 4.167 4.642 6.695 6.593 1.217.96 2.556 1.788 4.076 2.412 2.11.849 4.25 1.322 6.406 1.583 4.905.64 9.866.113 14.499.662l10.614 3.387c1.896.22 3.71.72 5.491 1.439 7.42 2.96 14.14 8.71 21.756 10.417 2.333.533 4.233.646 5.95.49 2.753-.199 5.083-1.028 8.203-1.787.785-.192 3.44-.73 4.7-1.28 4.296 2.074 8.555 4.115 13 5.927 5.615 2.3 11.533 4.212 18.106 5.388 1.826.352 6.068.85 10.314.925.159.038.307-.008.473 0 1.415.014 2.82-.013 4.127-.12.276.053.506.07.803.135 6.42 1.266 15.77 5.432 20.903 5.65.443-.004 5.11.012 7.328-.528 2.234-.596 2.776-1.828 2.179-2.94-1.442-2.687-3.275-5.12-5.37-7.44-7.931-8.701-19.774-15.246-26.203-24.89l-18.383-28.314c-2.841-4.26-4.71-8.395-7.01-12.276 2.183-2.258 4.426-4.464 6.818-6.48a37.133 37.133 0 0 1 4.359-3.147c3.05 13.723 9.139 26.865 17.713 39.046 9.865 14.046 22.952 26.73 37.157 38.044 8.06 6.418 16.185 12.558 24.98 18.17 5.897 3.75 12.08 7.22 18.72 10.318 7.056 3.31 14.056 6.634 21.328 9.526 4.92 1.946 9.953 3.705 15.271 5.082 3.658.943 8.146 2.05 12.464 2.204 3.263.096 6.411-.409 9.158-1.758 2.575-1.308 3.839-3.239 4.334-5.455.647-2.724-.069-5.902-.858-8.224-1.475-3.988-4.38-7.995-8.23-11.614-5.425-5.07-12.62-9.394-18.644-12.485-17.58-9.234-36.993-16.503-54.372-25.838-11.354-6.088-21.792-13.08-30.318-22.004-2.57-2.674-5.233-5.011-7.5-7.602-1.394-1.599-2.623-3.29-3.554-5.263-1.576-3.335-2.954-6.614-4.074-10.008-1.088-3.297-1.93-6.705-2.406-10.204-.021-.135-.054-.318-.08-.47.114.027.226.067.34.093 2.889.658 5.818 1.098 8.805 1.26 3.084.148 6.181.05 9.267-.23 1.915 4.028 5.488 7.913 7.555 11.378 6.01 10.06 15.065 19.274 25.62 27.442 10.504 8.128 22.471 15.167 34.362 20.862a156.874 156.874 0 0 0 10.068 4.306c5.093 2.008 10.307 3.829 15.613 5.627 1.89.64 5.188 1.775 7.983 1.933 1.821.133 3.457-.16 4.69-.932 2.956-1.767 4.018-3.964 4.16-6.303.194-2.928-1.356-6.217-2.38-9.005l-8.405-19.901c-.4-1-.721-1.949-1.082-2.914.896-.13 1.822-.23 2.733-.342 1.127 5.223 2.783 10.435 4.846 15.607 4.103 10.315 9.75 20.41 15.518 29.954 1.386 2.282 2.279 4.945 2.927 7.72 1.586 6.685 1.827 14.168 3.067 19.995 1.844 8.612 5.583 16.607 10.572 24.087 4.958 7.435 11.166 14.41 17.917 21.041a130.157 130.157 0 0 0 7.611 6.898c-2.65.95-5.255 1.938-7.763 3.016Zm28.86-11.297c-5.19 2.677-10.917 4.694-16.613 6.687-3.05-2.511-5.907-5.199-8.284-7.592-6.485-6.54-12.406-13.322-17.145-20.602-4.657-7.142-8.156-14.723-9.827-22.906-1.22-5.831-1.42-13.377-3.024-20.058-.773-3.216-1.856-6.2-3.457-8.796-5.844-9.315-11.55-19.187-15.816-29.305-2.084-4.956-3.82-9.966-5.04-14.993 1.137-.128 2.25-.326 3.387-.469 1.136 2.593 2.426 5.135 4.288 7.435a23.281 23.281 0 0 0 6.225 5.346c.915.563 1.883.956 2.881 1.29 2.033.657 4.226.961 6.272 1.668 2.003.717 4.307 2.198 6.405 3.835 2.11 1.635 4.032 3.523 5.128 4.985 1.739 2.353 3.52 4.695 4.96 7.173.906 1.56 1.678 3.206 2.173 4.918.81 2.79.799 5.62.45 8.48-.882 7.025-3.751 14.218-3.1 21.13.643 6.286 3.413 12.264 7.268 17.82 5.641 8.16 13.606 15.544 20.416 22.371 2.82 2.824 6.445 6.393 10.383 9.415.864.663 1.761 1.227 2.65 1.822-.204.108-.372.244-.58.346Zm-466.708-37.971.006-.002.007.05c-.013.004-.02-.047-.013-.048Z" fill="#012d20"/>
</svg>