<svg xmlns="http://www.w3.org/2000/svg" viewBox="0 0 2000 1000" transform="matrix(1, 0, 0, 1, 0, 0)">
<path id="tree2_left_mobile" class="cls-tree-mobile-3" d="M.746 342.356c-.249.006-.497.019-.746.027v5.455a32.674 32.674 0 0 1 3.424-.33c1.821.03 3.653.093 5.543.213 14.345.824 28.233 5.174 42.352 7.51 6.241 1.056 12.534 1.68 18.889 1.553 1.106-.034 2.32-.052 3.577-.074 1.943.034 3.89.017 5.84-.116 4.173-.254 7.809-1.031 11.067-2.593 3.34-1.578 6.217-3.976 8.86-7.324.324-.418 2.425-2.46 3.258-3.32.128-.129.19-.259.279-.389.51-.163 1.022-.304 1.561-.354.548-.05 1.115.035 1.758.302a41.25 41.25 0 0 1 3.323 1.552 34.36 34.36 0 0 1 2.272 1.315c-.592.877-1.11 1.934-1.598 3.057-.462 1.114-.804 2.303-1.055 3.454-.552 2.483-.487 4.87.5 6.609.834 1.5 2.238 2.836 3.832 3.898a17.393 17.393 0 0 0 4.75 2.17c4.854 1.308 9.661 3.4 14.56 4.603.214.05.43.07.643.115-1.12 1.928-1.503 4.348-1.42 7.015-3.425-.581-6.857-.924-10.142-1.137-15.21-.856-30.044 2.286-44.965 2.428-6.1.058-12.214-.392-18.363-1.912-3.491-.844-6.858-1.988-10.202-3.249-8.09-3.076-15.925-6.825-24.21-9.305-2.571-.765-5.13-2.226-7.766-3.193-1.303-.49-2.638-.843-3.98-.997-3.406-.383-6.764-1.247-10.12-1.81A47.009 47.009 0 0 0 0 357.204v2.447c2.727.636 5.395 1.555 8.097 2.346 1.304.365 2.605.678 3.924.948 1.044.207 2.051.624 3.07 1.072 2.652 1.174 5.281 2.766 7.923 3.66 8.098 2.754 15.658 6.866 23.572 10.12 3.514 1.457 7.086 2.712 10.795 3.696 6.63 1.694 13.208 2.236 19.777 2.196 14.809-.113 29.51-3.36 44.592-2.557 3.61.201 7.407.586 11.166 1.275.7 3.874 1.617 7.748 1.397 10.635-.109 1.411-1.062 2.623-1.535 3.883-.182.502-.313 1-.401 1.516-.297 2.287.056 4.768.741 7.236.923 3.345 2.45 6.689 3.488 9.454 1.542 4.154 2.572 8.271 4.133 12.257 1.087 2.71 2.42 5.37 4.308 7.961 1 1.343 2.11 2.481 3.294 3.5 2.604 2.259 5.599 3.877 8.427 6.078 7.833 6.058 14.198 11.658 21.776 15.728 5.005 2.702 10.515 4.734 17.297 5.813 3.315.545 6.816.515 10.379.159 7.736-.736 15.8-2.991 22.885-3.972a81.273 81.273 0 0 0 14.232-3.265c6.677-2.178 12.876-5.082 19.961-8.548 3.137-1.511 7.096-2.582 10.162-4.65 1.498-1.011 2.815-2.248 3.743-3.821 4.407-7.362 4.767-16.653 2.782-26.036-2.812-13.266-10.234-26.736-17.023-34.947-2.843-3.438-6.31-7.31-10.306-10.146-2.805-2.016-5.884-3.493-9.133-4.011-3.766-.607-11.585-1.79-17.845-1.647-3.322.08-6.24.577-8.027 1.619-2.365 1.405-4 4.016-6.07 6.045-.729.728-1.517 1.355-2.452 1.796-1.178.54-3.055.767-5.085.88-3.086.177-6.453.062-8.45.037-2.718-.046-5.681-1.074-8.574-2.574-4.349-2.229-8.512-5.51-11.394-8.186-.911-.83-4.737-5.955-7.343-8.391a16.587 16.587 0 0 0-1.417-2.094c-2.948-3.606-7.16-5.076-11.507-4.944-5.541.164-11.427 3.097-15.624 7.834-.607.678-1.16 1.528-1.667 2.448-1.184 2.205-2.088 4.961-3.178 7.277l-15.635-5.258a14.332 14.332 0 0 1-3.883-1.835c-1.158-.781-2.214-1.746-2.833-2.857-.654-1.15-.496-2.74-.157-4.408.435-1.952 1.29-3.912 2.039-5.555.037.02.073.05.11.069.54.274 1.11.41 1.64.404 1.267-.028 2.33-.29 3.286-.722 1.494-.636 2.688-1.698 3.868-2.79 1.211-1.105 2.372-2.331 4.266-2.6 1.48-.24 2.94.238 4.401.769 1.827.682 3.66 1.467 5.534 1.791a9.964 9.964 0 0 0 3.39 0c3.877-.754 7.157-2.733 9.92-5.404 3.885-3.738 6.803-8.78 9.35-13.046 1.035-1.83 3.061-4.48 3.758-7.13l.028-.188c.26-.445.433-.925.573-1.445.38-1.524.174-3.267-.175-4.968-.53-2.479-1.685-4.84-3.056-6.438-.87-.988-2.02-1.666-3.307-2.199-2.198-.936-4.881-1.245-6.726-2.486-2-1.356-3.908-3.05-5.944-4.497a25.128 25.128 0 0 0-2.967-1.807l-4.394-1.696-3.077-2.63c-.936-.59-2.555-1.286-4.21-1.896-1.643-.58-3.342-1.084-4.404-1.248a40.552 40.552 0 0 0-3.763-.43c-1.369-.09-2.743-.107-3.89-.005-.849.05-1.674.285-2.5.645-1.425.59-2.79 1.58-3.987 2.29-3.516 2.183-6.2 4.962-8.516 8.069-3.177 4.332-5.602 9.277-8.807 13.798-1.153 1.631-2.597 3.116-3.848 4.681-.609.803-1.196 1.614-1.676 2.47-.97 1.731-1.674 4.1-2.096 6.511-.374 2.356-.495 4.766-.298 6.655.204 2.294 1.589 5.253 3.618 7.626 2.045 2.388 4.694 4.133 7.244 4.355-.194.194-.37.373-.5.508-.145.109-.28.205-.381.259l-6.676 4.84c-1.995 1.483-4.579 2.144-7.288 2.503-4.348.557-9.082.227-12.747.165-4.044.006-8.032-.367-12.022-.916-6.437-.885-12.828-2.304-19.22-3.722a692.543 692.543 0 0 0-8.86-1.93c1.508-.516 2.989-1.193 4.465-2.001 3.642-2.005 7.176-4.658 10.81-6.215 7.376-3.32 14.681-7.196 21.453-11.845 6.854-4.666 13.124-10.102 18.43-16.363 5.237-6.215 10.334-12.638 15.644-18.847a205.379 205.379 0 0 1 6.936-7.77c3.313-3.573 6.83-6.183 10.59-8.29 5.882-3.286 12.282-5.403 19.3-7.918 2.392-.866 4.932-1.119 7.348-1.8a15.885 15.885 0 0 0 3.401-1.301c1.925-1.01 3.85-2.321 5.441-3.921.37-.384.717-.786 1.05-1.198 7.201.206 14.897-.855 21.018 1.682 3.48 1.417 6.52 3.531 9.324 5.974 6.9 5.947 12.557 13.74 19.742 18.876 4.479 3.187 10.104 5.544 15.97 7.02 5.813 1.48 11.869 2.133 17.212 1.962 2.947-.084 5.872-.478 8.588-1.336 2.827-.887 5.445-2.237 7.8-4.223a42.4 42.4 0 0 0 4.692-4.659 46.14 46.14 0 0 0 3.95-5.291 15.25 15.25 0 0 0 2.424-6.452c.324-2.176.196-4.413-.23-6.774-.837-4.463-2.172-8.632-4.32-12.233-2.185-3.693-5.226-6.836-9.444-9.137-4.933-2.697-10.192-3.395-14.377-5.531-2.568-1.316-4.677-3.194-5.943-6.681-1.229-3.396-1.01-6.042-.159-8.4 1.54-4.383 4.893-7.99 5.957-13.223.359-1.834.053-4.246-.67-6.68-.964-3.31-2.658-6.674-4.037-8.676-1.63-2.308-3.523-3.494-5.627-3.99-3.809-.925-8.273.639-12.524 1.689-3.72.918-7.285 1.525-9.721-1.744-2.16-2.905-1.722-5.961-.831-9.081.96-3.469 2.486-7.029 2.617-10.615.098-3.022-.734-6.104-3.59-9.145-1.88-2.01-4.002-3.793-6.386-5.007-2.47-1.25-5.197-1.877-8.19-1.561-2.683.294-5.71 1.902-8.582 2.292-1.092.15-2.134.12-3.132-.318-2.716-1.201-5.35-3.021-7.943-5.125-5.915-4.811-11.556-11.066-17.187-15.107-4.804-3.371-10.448-5.685-16.468-7.15-4.307-1.058-8.788-1.634-13.205-2.06-3.098-.28-6.18-.477-9.163-.608-.021-.01-.034-.04-.034-.04a1.133 1.133 0 0 0-.2-.183c-.886-.77-2.193-2.039-3.424-2.825-1.239-.765-2.49-.957-3.378-.571-1.593.695-3.564 1.937-5.567 3.316-2.763 1.943-5.595 4.233-7.46 5.946-1.612 1.466-2.449 3.002-3.174 4.509-.632 1.344-1.14 2.69-2.262 3.883-.686.745-1.645 1.426-3.006 2.043-.948.41-1.911.613-2.873.692-2.716.255-5.527-.232-8.298.276-5.02.907-10.373 1.526-15.353 3.002-3.523 1.05-6.85 2.533-9.79 4.78-1.281.975-3.068 1.59-4.352 2.69a6.158 6.158 0 0 0-1.74 2.442c-.428 1.153-.617 2.456-.685 3.833-.08 2.678.43 5.626.543 7.958.103 1.75.29 3.358.671 4.922a17.166 17.166 0 0 0 1.897 4.753c5.151 9.014 12.658 18.401 21.562 25.933 9.037 7.636 19.496 13.352 30.298 15.092 3.63.581 7.184.548 10.712.317l-.035.091a23.402 23.402 0 0 0-1.014 4.325c-.306 2.132-.403 4.302-.596 6.405-.15 1.997-.368 3.915-.448 5.865-.05 1.335-.05 2.666.088 4.028.412 4.64 1.452 9.34 1.121 13.771-.197 2.78-.963 5.475-2.919 7.954-.801 1.023-1.679 1.99-2.578 2.948-1.362 1.47-2.792 2.86-4.221 4.25-.262.269-.663.63-1.11.921a3.172 3.172 0 0 1-.772.409c-.104.007-.203.066-.28.009-1.12-.69-1.88-2.31-2.516-4.106a33.365 33.365 0 0 1-.81-2.729l.146-.031c.553-.122 1.596-1.246 1.885-1.579.53-.734.987-1.474 1.38-2.24.617-1.125 1.075-2.29 1.547-3.551.985-2.68 1.033-5.823.342-8.821-.69-2.998-2.107-5.819-3.999-7.858-.63-.663-1.344-1.36-2.133-1.939-.56-.407-1.158-.78-1.758-1.03-.728-.301-1.33-.425-1.867-.522-.421-.074-.796-.08-1.116-.337-.307-.228-.525-.67-.817-1.419-.356-.9-.475-2.004-.461-3.128.01-1.176.154-2.371.334-3.351.166-.885.633-2.072.65-3.145a3.79 3.79 0 0 0-.489-1.91c-.48-.776-1.187-1.496-2.01-2.113-1.046-.81-2.278-1.471-3.223-2.039-1.714-1.012-3.475-1.791-5.28-2.464-4.034-1.471-8.19-2.29-12.285-4.037-1.084-.474-3.497-1.073-5.683-1.25-.93-.07-1.817-.038-2.593.084-.932-1.032-1.858-1.98-2.598-2.763-3.742-3.936-7.958-7.09-12.637-9.003-4.659-1.906-9.801-2.581-15.396-1.56-.915.147-1.763.499-2.57.992-.2.118-.4.237-.608.376-1.916-.769-4.55-.956-7.312-.77-3.829.27-7.998 1.304-10.966 2.71-.346.166-.67.34-.985.516v77.94c1.406-.096 2.8-.137 4.153-.02 1.746.146 3.409.56 4.904 1.555 2.588 1.75 4.648 3.383 6.425 5.274 1.786 1.87 3.288 4 4.801 6.71 2.954 5.29 4.924 12.107 8.88 16.433a15.254 15.254 0 0 0 3.038 2.587c-.212.587-.383 1.112-.503 1.351-.648 1.564-1.596 3.004-2.723 4.27a15.454 15.454 0 0 1-3.869 3.216c-3.936 2.41-8.692 4.557-13.635 6.124-3.815 1.192-7.739 2.058-11.471 2.419v2.756c4.006-.33 8.226-1.205 12.316-2.491 5.168-1.624 10.144-3.88 14.268-6.439 1.65-1.073 3.147-2.386 4.368-3.939a18.143 18.143 0 0 0 2.842-5.098c.091-.221.226-.632.352-1.121 2.078.885 4.53 1.292 7.501 1.011a8.924 8.924 0 0 0 3.946-1.325c.994.457 2.048.783 3.118.94.903.122 1.844.638 2.776.874.635.163 1.294.21 1.92.092 2.947-.51 5.468-2.352 7.67-4.754 2.903-3.19 5.203-7.409 7.22-10.213l3.733-4.83c.404-.61.765-1.24 1.104-1.877.724-1.382 1.318-2.818 2.085-4.182 1.136-2.015 2.665-3.766 3.942-5.697a18.313 18.313 0 0 0 1.603-2.775c1.116-2.45 1.54-4.684 1.412-6.921-.11-2.155-.722-4.316-1.67-6.693-.376-.909-1.545-2.874-2.289-4.714-.405-1.021-.825-1.948-.499-2.491.207-.316.688-.569 1.2-.834.996-.465 2.176-.83 2.812-1.093 1.17-.52 2.283-1.39 3.424-2.021.35-.18.702-.362 1.07-.46.083.16.268.563.354.9.314 1.059.436 2.34.517 2.75.515 2.272 1.189 6.643 2.54 9.864.731 1.81 1.738 3.256 2.935 4.003.654.422 1.385.474 2.172.273 1.123-.288 2.35-1.31 2.974-1.906 1.439-1.412 2.93-2.828 4.321-4.31a45.952 45.952 0 0 0 2.722-3.114c2.302-2.887 3.232-6.042 3.48-9.303.34-4.579-.72-9.411-1.152-14.185a36.367 36.367 0 0 1-.087-3.726c.062-1.908.22-3.8.339-5.785.09-2.096.095-4.228.31-6.323.134-1.35.34-2.696.705-4.001.07-.214.186-.503.315-.817 4.693-.394 9.357-1.004 14.1-.89a35.77 35.77 0 0 1 5.495.549c-.345 1.089-.736 2.173-1.015 3.24-.935 3.529-2.177 7.131-3.053 10.76-.6 2.538-1.003 5.083-1.052 7.623-.055 3.04-.163 6.635 1.212 8.586 1.042 1.486 2.849 2.335 6.099 1.398a8.595 8.595 0 0 0 1.684-.733c.75-.417 1.454-.904 2.153-1.317.333-.212.792-.463 1.285-.727 1.05 1.98 2.271 3.73 3.667 5.014 3.168 2.895 6.998 4.256 11.147 4.845.124.018.251.028.376.044-1.201.977-2.472 1.865-3.802 2.528-.893.459-1.819.753-2.778 1.008-2.501.645-5.127.863-7.636 1.706-7.262 2.438-13.916 4.5-20.012 7.823-4.124 2.258-7.989 5.1-11.645 8.957a212.819 212.819 0 0 0-7.016 7.963c-5.233 6.266-10.241 12.777-15.41 19.07-5.05 6.066-11.084 11.298-17.614 15.847-6.569 4.583-13.655 8.475-20.812 11.81-3.652 1.725-7.184 4.554-10.855 6.748-1.506.908-3.04 1.703-4.615 2.23-.74.256-1.58.762-2.417 1.302-5.587-1.079-11.202-1.948-16.879-2.294-2.922-.158-5.747-.248-8.53-.197ZM19.204 202.82l-1.751-.09c.184-.112.369-.22.554-.338.437.118.849.246 1.197.428Zm71.016 59.8c.059.007.103.053.151.14-.045-.03-.086-.035-.13-.053l-.02-.088Zm-27.924 22.146c5.396.127 10.705-1.84 14.537-6.604.91-1.104 1.141-2.087 1.04-2.933-.086-.763-.426-1.457-1.043-2.089-1.685-1.627-6.092-2.625-9.309-3.707-.767-.268-1.44-.522-1.94-.83-.184-.1-.374-.129-.414-.272-.407-1.35-.022-2.576.576-3.755.597.69 1.209 1.358 1.862 1.93.797.68 1.678 1.221 2.638 1.57.725.25 1.65.382 2.605.376 1.215-.023 2.51-.24 3.473-.443.225-.058.588-.209.941-.514a25.1 25.1 0 0 0 .72-.692c.14.312.262.594.338.804.805 2.116 1.294 4.026 1.357 5.935.05 1.878-.31 3.713-1.256 5.755a15.842 15.842 0 0 1-1.421 2.4c-1.338 1.955-2.915 3.762-4.09 5.81-.797 1.377-1.453 2.838-2.185 4.241-.304.552-.63 1.095-.976 1.63l-3.711 4.712c-1.98 2.72-4.25 6.8-7.087 9.892-1.759 1.882-3.72 3.404-6.052 3.819a1.71 1.71 0 0 1-.692-.086c-1.026-.25-2.075-.81-3.072-.947-.359-.05-.707-.164-1.058-.264.367-.487.704-1 .982-1.55 1.368-2.697 1.62-6.032.613-8.81-1.691-4.642-8.785-12-11.748-18.902-1.194-2.754-1.716-5.43-.465-7.724.68-1.275 1.888-.799 3.142-.129 2.704 1.472 5.569 4.492 6.852 5.577 4.074 3.496 9.5 5.669 14.843 5.8Zm27.832-22.524c-.354-1.541-.63-2.961-.864-3.958-.173-.674-.497-3.344-1.323-4.44-.53-.72-1.207-1.026-2.014-.834a7.762 7.762 0 0 0-1.797.762c-1.08.606-2.112 1.46-3.22 1.954-.767.335-2.25.825-3.37 1.466-.69.392-1.229.846-1.519 1.303-.457.74-.451 1.997-.05 3.394.309 1.08.826 2.293 1.307 3.36-.6.261-1.342.849-1.441.475-.013-.03.039-.034.07-.046a18.86 18.86 0 0 1-3.026.152c-.637-.038-1.244-.089-1.715-.284-1.611-.619-2.724-2.09-3.884-3.555.872-1.364 1.725-2.717 2.153-4.142.39-1.244.475-2.54.066-3.914-.55-1.885-1.685-4.414-3.051-6.813-1.388-2.407-3.044-4.65-4.637-6.014-1.53-1.337-4.501-2.769-6.548-4.496-.72-.624-1.315-1.248-1.534-1.991-.562-1.915.09-3.73.913-5.597.94-2.146 2.108-4.298 2.632-6.591.274-1.267.368-2.584.135-3.96-.258-1.605-1.105-3.23-2.184-4.777.348.022.704.055 1.062.093 1.604.188 3.192.596 3.977.945 4.12 1.809 8.313 2.718 12.382 4.228 1.633.602 3.274 1.307 4.848 2.236.876.488 2.01 1.084 2.996 1.794.547.377 1.067.819 1.384 1.326.161.218.161.52.14.812-.066.826-.4 1.692-.486 2.384-.227 1.337-.347 3.02-.224 4.602.102 1.146.316 2.265.693 3.174.548 1.281 1.061 1.921 1.598 2.32.88.665 1.873.449 3.489 1.093.578.24 1.134.596 1.641 1.007.572.438 1.074.922 1.546 1.42 1.684 1.752 2.962 4.24 3.585 6.857.643 2.627.661 5.37-.182 7.707a45.63 45.63 0 0 1-1.13 2.846 18.832 18.832 0 0 1-1.448 2.588c-.13.22-.634.73-.97 1.114Zm44.733-15.688c-.538.226-1.04.44-1.403.623-.702.362-1.423.766-2.168 1.11a6.025 6.025 0 0 1-1.358.492c-2.005.475-3.125.21-3.73-.693-1.107-1.689-.678-4.724-.578-7.268.103-2.368.56-4.74 1.11-7.098.845-3.616 2.014-7.223 2.876-10.757.268-1.089.676-2.207.97-3.335.93.244 1.866.533 2.807.883.245.077.181.352.2.61-.001.427-.05.908-.16 1.415-.528 2.668-1.94 5.773-1.993 6.931-.171 4.047.637 9.729 2.445 14.696.295.823.628 1.618.983 2.39Zm-36.63 93.374c-1.636-.05-3.26-1.402-4.588-2.982-1.41-1.688-2.44-3.747-2.586-5.39-.132-1.56.005-3.587.357-5.525.354-1.887.899-3.745 1.677-5.08.379-.67.835-1.285 1.333-1.882 1.308-1.642 2.834-3.143 4.048-4.8 3.26-4.473 5.754-9.34 8.955-13.61 1.966-2.625 4.21-5.01 7.209-6.855.885-.561 1.89-1.35 2.952-1.914.46-.261.954-.484 1.458-.55.97-.1 2.112-.13 3.249-.085 1.188.04 2.38.133 3.365.24.903.123 2.29.472 3.653.936 1.343.456 2.68.985 3.441 1.452.91.528 1.559 1.449 2.425 2.084.329.237.666.452 1.043.633l4.43 1.61c.86.407 1.698.93 2.527 1.474 2.054 1.404 4.053 3.06 6.083 4.404 2.06 1.33 4.996 1.694 7.456 2.664.78.298 1.525.682 2.078 1.287 1.153 1.156 2.112 2.96 2.662 4.844a12.1 12.1 0 0 1 .46 3.856c-.013.396.013.758-.026 1.094-.172.355-.315.698-.508 1.045-1.081 2.062-2.558 4.111-3.515 5.573-2.569 3.956-5.504 8.614-9.318 12.004-2.357 2.111-5.082 3.719-8.28 4.226-1.532.244-2.968-.226-4.409-.748-1.805-.673-3.621-1.501-5.455-1.86-1.11-.233-2.258-.307-3.401-.154-1.174.167-2.195.572-3.106 1.073-1.349.772-2.46 1.817-3.593 2.854-1.115.994-2.239 2.01-4.032 2.095l-1.194-.871c-1.008-.72-2.244-1.433-3.519-2.111-1.21-.653-2.5-1.237-3.605-1.72-1.35-.56-2.546-.704-3.65-.584-1.013.082-1.98.358-2.946.687-.946.285-1.92.635-3.13.586Z" fill="#004532"/></svg>