<svg xmlns="http://www.w3.org/2000/svg" viewBox="0 0 2000 1000"><path id="tree2_right_mobile" class="cls-tree-mobile-3" d="M418.724 342.552c-5.677.346-11.292 1.216-16.88 2.295-.836-.54-1.677-1.046-2.416-1.302-1.575-.528-3.109-1.323-4.615-2.23-3.67-2.194-7.203-5.023-10.855-6.748-7.157-3.336-14.243-7.227-20.812-11.81-6.53-4.55-12.564-9.781-17.614-15.848-5.168-6.293-10.177-12.803-15.41-19.07-2.282-2.72-4.61-5.37-7.016-7.963-3.656-3.857-7.52-6.699-11.645-8.956-6.096-3.323-12.75-5.385-20.012-7.824-2.509-.843-5.135-1.06-7.636-1.705-.96-.255-1.885-.55-2.778-1.009-1.33-.663-2.6-1.55-3.802-2.527.125-.017.252-.026.376-.044 4.15-.59 7.979-1.95 11.147-4.846 1.396-1.283 2.616-3.034 3.667-5.014.493.264.952.515 1.285.727.699.414 1.402.9 2.153 1.318.529.308 1.105.546 1.684.732 3.25.938 5.058.088 6.099-1.397 1.375-1.951 1.267-5.546 1.212-8.586-.05-2.54-.451-5.086-1.051-7.624-.877-3.628-2.119-7.23-3.054-10.76-.28-1.066-.67-2.15-1.015-3.24a35.783 35.783 0 0 1 5.495-.55c4.743-.113 9.407.497 14.1.891.129.314.245.604.315.817.365 1.305.571 2.651.704 4.002.216 2.095.221 4.226.311 6.323.12 1.984.277 3.877.339 5.784a36.34 36.34 0 0 1-.087 3.727c-.432 4.773-1.492 9.606-1.151 14.184.247 3.262 1.177 6.416 3.478 9.303a45.952 45.952 0 0 0 2.723 3.115c1.392 1.482 2.882 2.898 4.321 4.31.624.595 1.85 1.618 2.975 1.905.786.202 1.517.15 2.171-.272 1.197-.747 2.204-2.194 2.935-4.004 1.351-3.22 2.025-7.592 2.54-9.864.08-.41.203-1.69.517-2.75.086-.337.27-.74.355-.9.367.099.718.28 1.07.46 1.14.632 2.253 1.502 3.423 2.021.636.263 1.816.628 2.813 1.094.51.265.993.517 1.199.833.326.543-.094 1.47-.5 2.492-.743 1.84-1.912 3.805-2.288 4.714-.948 2.376-1.56 4.538-1.67 6.692-.127 2.237.296 4.472 1.412 6.921.452.968.989 1.9 1.603 2.776 1.277 1.93 2.806 3.682 3.942 5.697.767 1.364 1.361 2.8 2.085 4.182.34.637.7 1.266 1.104 1.877l3.734 4.83c2.016 2.804 4.316 7.022 7.22 10.212 2.2 2.402 4.722 4.244 7.67 4.755.625.117 1.284.07 1.92-.093.931-.236 1.872-.751 2.775-.874a11.476 11.476 0 0 0 3.119-.94 8.924 8.924 0 0 0 3.945 1.326c2.972.28 5.423-.127 7.5-1.012.128.489.262.9.353 1.121a18.14 18.14 0 0 0 2.842 5.099c1.22 1.553 2.718 2.865 4.368 3.939 4.124 2.559 9.1 4.814 14.268 6.438 4.09 1.286 8.31 2.162 12.316 2.492v-2.757c-3.732-.36-7.656-1.227-11.471-2.42-4.942-1.566-9.698-3.713-13.635-6.123a15.454 15.454 0 0 1-3.869-3.217c-1.127-1.265-2.075-2.705-2.723-4.27-.12-.238-.29-.763-.503-1.35a15.25 15.25 0 0 0 3.038-2.587c3.957-4.326 5.927-11.142 8.88-16.434 1.513-2.71 3.016-4.84 4.801-6.71 1.777-1.89 3.837-3.523 6.426-5.273 1.495-.996 3.157-1.409 4.904-1.555 1.352-.118 2.747-.077 4.152.019v-77.94c-.314-.176-.638-.35-.985-.515-2.968-1.406-7.137-2.44-10.965-2.711-2.763-.186-5.397.002-7.312.77a12.44 12.44 0 0 0-.608-.375c-.807-.494-1.656-.845-2.57-.993-5.595-1.02-10.738-.345-15.397 1.56-4.679 1.915-8.895 5.068-12.637 9.004-.74.783-1.665 1.73-2.598 2.763a11.384 11.384 0 0 0-2.593-.085c-2.186.178-4.599.776-5.683 1.25-4.095 1.748-8.25 2.567-12.285 4.038-1.805.672-3.565 1.452-5.28 2.464-.945.567-2.177 1.229-3.222 2.038-.824.618-1.53 1.338-2.011 2.114a3.789 3.789 0 0 0-.489 1.91c.017 1.072.484 2.26.65 3.145.18.98.325 2.175.335 3.35.014 1.125-.106 2.229-.461 3.129-.292.749-.51 1.19-.818 1.419-.32.258-.694.262-1.115.336-.538.098-1.14.221-1.867.523-.6.249-1.199.623-1.758 1.03-.79.578-1.504 1.276-2.134 1.939-1.892 2.039-3.308 4.86-3.998 7.858-.691 2.997-.644 6.14.341 8.82.473 1.261.93 2.427 1.548 3.552.392.766.85 1.506 1.38 2.24.288.332 1.331 1.456 1.884 1.579l.147.03c-.238.92-.498 1.845-.81 2.73-.637 1.795-1.397 3.416-2.516 4.106-.077.057-.177-.003-.28-.01a3.172 3.172 0 0 1-.772-.408 6.898 6.898 0 0 1-1.11-.92c-1.43-1.392-2.86-2.782-4.222-4.251-.9-.958-1.776-1.925-2.578-2.949-1.955-2.478-2.721-5.173-2.919-7.953-.331-4.432.71-9.132 1.121-13.771.139-1.363.14-2.693.088-4.028-.08-1.95-.298-3.868-.447-5.865-.194-2.104-.29-4.273-.596-6.406a23.393 23.393 0 0 0-1.014-4.324l-.036-.09c3.529.23 7.083.263 10.712-.318 10.802-1.74 21.262-7.456 30.298-15.093 8.904-7.531 16.41-16.919 21.563-25.933a17.164 17.164 0 0 0 1.896-4.752c.382-1.564.568-3.173.672-4.923.113-2.331.623-5.28.543-7.958-.069-1.377-.258-2.68-.685-3.833a6.158 6.158 0 0 0-1.74-2.442c-1.284-1.1-3.071-1.715-4.353-2.69-2.94-2.246-6.266-3.73-9.79-4.78-4.98-1.476-10.332-2.094-15.352-3.001-2.772-.509-5.583-.021-8.299-.276-.962-.079-1.925-.282-2.873-.693-1.36-.616-2.32-1.298-3.006-2.043-1.122-1.192-1.63-2.538-2.262-3.883-.725-1.507-1.562-3.043-3.174-4.508-1.864-1.713-4.696-4.004-7.46-5.946-2.003-1.38-3.973-2.622-5.567-3.317-.888-.385-2.139-.193-3.378.572-1.23.786-2.537 2.055-3.424 2.825a1.133 1.133 0 0 0-.2.183s-.013.03-.034.04a200.5 200.5 0 0 0-9.162.608c-4.418.425-8.899 1.002-13.206 2.059-6.02 1.466-11.664 3.78-16.467 7.15-5.631 4.042-11.273 10.297-17.188 15.108-2.592 2.103-5.227 3.923-7.943 5.124-.998.44-2.04.47-3.132.32-2.873-.392-5.899-2-8.581-2.294-2.993-.316-5.72.313-8.19 1.562-2.384 1.214-4.507 2.997-6.386 5.006-2.856 3.042-3.688 6.123-3.59 9.146.13 3.586 1.656 7.146 2.616 10.614.891 3.12 1.33 6.177-.83 9.081-2.437 3.27-6.002 2.663-9.721 1.744-4.252-1.05-8.716-2.614-12.524-1.688-2.105.496-3.998 1.682-5.628 3.99-1.38 2.002-3.073 5.365-4.036 8.676-.723 2.434-1.03 4.845-.67 6.68 1.064 5.233 4.416 8.84 5.956 13.222.852 2.358 1.07 5.004-.159 8.4-1.266 3.488-3.374 5.366-5.942 6.681-4.186 2.137-9.445 2.835-14.378 5.532-4.218 2.3-7.259 5.444-9.444 9.136-2.148 3.601-3.483 7.77-4.32 12.234-.426 2.36-.554 4.598-.23 6.773a15.25 15.25 0 0 0 2.424 6.452 46.14 46.14 0 0 0 3.95 5.292 42.4 42.4 0 0 0 4.692 4.658c2.355 1.987 4.973 3.337 7.8 4.223 2.716.858 5.642 1.253 8.588 1.337 5.344.17 11.4-.482 17.213-1.962 5.865-1.477 11.49-3.833 15.97-7.02 7.184-5.137 12.842-12.93 19.741-18.877 2.804-2.442 5.845-4.556 9.324-5.973 6.121-2.537 13.817-1.477 21.018-1.682.333.412.681.814 1.05 1.197 1.592 1.6 3.516 2.912 5.441 3.921 1.092.577 2.218.99 3.401 1.302 2.417.68 4.957.933 7.35 1.8 7.016 2.514 13.417 4.632 19.298 7.918 3.76 2.107 7.277 4.717 10.59 8.29a205.292 205.292 0 0 1 6.936 7.77c5.31 6.209 10.408 12.632 15.644 18.847 5.306 6.261 11.576 11.696 18.43 16.362 6.772 4.65 14.078 8.526 21.454 11.846 3.633 1.557 7.167 4.21 10.81 6.215 1.476.808 2.957 1.485 4.464 2.001-2.957.618-5.91 1.272-8.86 1.93-6.391 1.418-12.783 2.837-19.22 3.722-3.99.549-7.978.921-12.022.915-3.664.063-8.398.393-12.746-.165-2.71-.358-5.293-1.02-7.289-2.502l-6.675-4.84c-.101-.054-.236-.15-.382-.26a34.248 34.248 0 0 0-.5-.508c2.55-.221 5.2-1.966 7.245-4.355 2.029-2.372 3.413-5.331 3.618-7.625.196-1.89.076-4.3-.298-6.655-.422-2.411-1.127-4.78-2.097-6.512-.48-.855-1.067-1.667-1.676-2.469-1.25-1.565-2.695-3.05-3.848-4.681-3.204-4.522-5.63-9.466-8.806-13.798-2.317-3.107-5-5.887-8.516-8.07-1.197-.708-2.563-1.7-3.987-2.29-.827-.36-1.652-.594-2.501-.644-1.147-.102-2.521-.085-3.89.005-1.317.094-2.637.24-3.763.43-1.062.164-2.761.667-4.404 1.247-1.655.611-3.274 1.307-4.21 1.896l-3.077 2.631-4.394 1.695a25.112 25.112 0 0 0-2.966 1.807c-2.037 1.447-3.946 3.142-5.944 4.497-1.846 1.242-4.529 1.55-6.727 2.487-1.286.533-2.436 1.21-3.307 2.199-1.371 1.597-2.526 3.96-3.056 6.438-.349 1.701-.555 3.443-.175 4.968.14.52.314 1 .574 1.444l.028.19c.696 2.648 2.723 5.298 3.758 7.128 2.546 4.267 5.464 9.309 9.348 13.047 2.764 2.67 6.045 4.65 9.922 5.403a9.967 9.967 0 0 0 3.39 0c1.873-.324 3.707-1.109 5.533-1.79 1.462-.53 2.92-1.01 4.4-.77 1.896.27 3.056 1.496 4.267 2.6 1.18 1.093 2.374 2.155 3.868 2.79.957.432 2.02.695 3.286.722.53.007 1.101-.13 1.64-.403.038-.019.073-.05.11-.07.75 1.644 1.605 3.604 2.04 5.556.338 1.667.496 3.259-.157 4.408-.62 1.11-1.676 2.075-2.834 2.856a14.332 14.332 0 0 1-3.883 1.836l-15.634 5.257c-1.09-2.315-1.994-5.07-3.179-7.277-.506-.92-1.06-1.77-1.667-2.447-4.197-4.737-10.083-7.67-15.623-7.835-4.348-.131-8.56 1.338-11.508 4.945-.513.64-.978 1.335-1.417 2.094-2.605 2.435-6.431 7.56-7.343 8.39-2.882 2.676-7.045 5.958-11.394 8.187-2.892 1.5-5.856 2.528-8.573 2.574-1.998.025-5.365.14-8.45-.037-2.031-.113-3.907-.34-5.086-.88-.935-.441-1.723-1.069-2.451-1.796-2.071-2.03-3.706-4.64-6.07-6.046-1.788-1.041-4.706-1.539-8.027-1.618-6.26-.143-14.08 1.04-17.845 1.646-3.25.519-6.329 1.996-9.133 4.011-3.997 2.837-7.463 6.708-10.306 10.146-6.79 8.212-14.212 21.681-17.024 34.947-1.985 9.384-1.625 18.674 2.782 26.036.929 1.574 2.245 2.81 3.743 3.821 3.066 2.069 7.025 3.14 10.162 4.651 7.085 3.466 13.285 6.37 19.962 8.548a81.273 81.273 0 0 0 14.232 3.265c7.084.98 15.149 3.236 22.885 3.972 3.562.356 7.064.386 10.378-.16 6.783-1.078 12.292-3.11 17.298-5.813 7.577-4.069 13.943-9.67 21.775-15.728 2.828-2.2 5.823-3.819 8.427-6.078a21.626 21.626 0 0 0 3.294-3.5c1.889-2.59 3.222-5.25 4.308-7.96 1.562-3.986 2.591-8.104 4.133-12.257 1.039-2.766 2.565-6.11 3.488-9.454.685-2.468 1.038-4.95.742-7.237a8.643 8.643 0 0 0-.402-1.515c-.472-1.26-1.426-2.472-1.534-3.883-.22-2.887.696-6.762 1.396-10.636 3.76-.689 7.556-1.073 11.166-1.274 15.083-.803 29.784 2.443 44.593 2.557 6.568.04 13.147-.503 19.776-2.196 3.709-.985 7.282-2.24 10.795-3.695 7.915-3.256 15.475-7.368 23.572-10.121 2.642-.894 5.271-2.486 7.923-3.66 1.02-.448 2.026-.865 3.07-1.072 1.32-.27 2.62-.584 3.925-.949 2.701-.79 5.37-1.709 8.096-2.345v-2.447c-.822.089-1.639.191-2.466.325-3.357.563-6.714 1.427-10.12 1.81-1.342.154-2.678.506-3.98.996-2.638.967-5.195 2.43-7.766 3.193-8.286 2.48-16.121 6.23-24.21 9.306-3.345 1.26-6.712 2.405-10.203 3.25-6.148 1.518-12.263 1.969-18.362 1.91-14.921-.142-29.755-3.283-44.966-2.427-3.284.213-6.716.555-10.142 1.136.083-2.666-.3-5.086-1.42-7.014.213-.045.43-.066.643-.116 4.9-1.202 9.706-3.294 14.56-4.603a17.393 17.393 0 0 0 4.75-2.17c1.594-1.062 2.999-2.397 3.833-3.897.986-1.74 1.051-4.127.5-6.61-.252-1.15-.594-2.34-1.055-3.454-.49-1.123-1.007-2.18-1.598-3.057a34.36 34.36 0 0 1 2.271-1.314 41.25 41.25 0 0 1 3.323-1.553c.643-.266 1.21-.35 1.758-.301.54.05 1.05.19 1.561.354.089.13.152.26.279.39.833.859 2.934 2.9 3.258 3.318 2.643 3.349 5.52 5.746 8.86 7.324 3.259 1.562 6.895 2.34 11.067 2.594 1.95.132 3.897.15 5.84.116 1.257.022 2.471.04 3.577.073 6.355.128 12.648-.497 18.89-1.552 14.119-2.337 28.007-6.687 42.352-7.51 1.89-.12 3.721-.184 5.542-.213 1.106.051 2.238.15 3.424.33v-5.456c-.248-.008-.497-.02-.746-.027-2.783-.051-5.607.04-8.53.197Zm-8.731-140.159c.185.118.37.226.554.338l-1.75.09c.347-.182.758-.31 1.196-.428Zm-72.235 60.315c-.042.018-.083.023-.129.053.048-.088.092-.133.15-.14l-.02.087Zm42.789 16.259c1.283-1.084 4.148-4.105 6.852-5.577 1.254-.67 2.462-1.146 3.142.13 1.251 2.292.729 4.969-.465 7.723-2.963 6.902-10.057 14.26-11.748 18.903-1.008 2.777-.755 6.112.613 8.808.278.55.615 1.064.982 1.552-.35.1-.7.213-1.058.263-.998.137-2.046.697-3.073.947a1.711 1.711 0 0 1-.691.086c-2.331-.415-4.293-1.937-6.052-3.819-2.838-3.091-5.107-7.172-7.087-9.892l-3.71-4.713a26.562 26.562 0 0 1-.977-1.628c-.732-1.404-1.388-2.865-2.185-4.242-1.175-2.048-2.752-3.855-4.09-5.81a15.842 15.842 0 0 1-1.42-2.4c-.948-2.042-1.307-3.877-1.257-5.755.063-1.91.552-3.82 1.357-5.935.076-.21.198-.492.337-.804.233.23.488.479.72.692.353.306.717.456.942.514.963.203 2.258.42 3.472.443.956.006 1.881-.126 2.606-.376.96-.349 1.841-.89 2.638-1.57.653-.572 1.265-1.24 1.862-1.93.598 1.18.982 2.405.576 3.755-.04.143-.23.171-.414.273-.5.307-1.173.561-1.94.829-3.217 1.082-7.624 2.08-9.31 3.707-.616.632-.956 1.326-1.042 2.09-.101.845.13 1.828 1.04 2.932 3.832 4.764 9.14 6.731 14.537 6.604 5.343-.131 10.769-2.304 14.843-5.8Zm-43.645-17.838a18.832 18.832 0 0 1-1.449-2.588 45.519 45.519 0 0 1-1.129-2.846c-.843-2.336-.825-5.08-.182-7.707.623-2.618 1.901-5.105 3.585-6.858.472-.497.974-.98 1.546-1.419.507-.411 1.063-.767 1.641-1.007 1.616-.644 2.61-.428 3.489-1.094.537-.398 1.05-1.038 1.598-2.32.377-.908.591-2.027.693-3.173.123-1.583.003-3.265-.224-4.602-.087-.692-.42-1.558-.486-2.384-.021-.293-.021-.594.14-.812.317-.507.837-.95 1.384-1.326.986-.71 2.12-1.306 2.997-1.794 1.573-.93 3.214-1.634 4.848-2.236 4.068-1.51 8.26-2.42 12.381-4.228.785-.35 2.373-.757 3.977-.945.358-.038.714-.071 1.062-.093-1.079 1.548-1.925 3.172-2.184 4.776-.233 1.377-.139 2.694.135 3.96.524 2.294 1.692 4.446 2.632 6.592.824 1.868 1.475 3.682.913 5.597-.219.743-.814 1.367-1.534 1.991-2.046 1.727-5.017 3.16-6.547 4.496-1.594 1.364-3.25 3.607-4.637 6.014-1.366 2.399-2.502 4.928-3.052 6.813-.41 1.375-.324 2.67.066 3.914.428 1.425 1.281 2.778 2.153 4.142-1.16 1.465-2.273 2.936-3.884 3.555-.471.195-1.078.246-1.715.284-1.042.03-2.17-.03-3.025-.152.03.012.082.016.07.046-.1.374-.842-.214-1.442-.475.48-1.067.998-2.28 1.307-3.36.401-1.397.407-2.654-.05-3.394-.29-.457-.83-.911-1.52-1.303-1.119-.641-2.602-1.131-3.369-1.466-1.108-.495-2.14-1.348-3.22-1.954a7.758 7.758 0 0 0-1.797-.762c-.807-.192-1.484.113-2.014.835-.826 1.095-1.15 3.765-1.323 4.44-.235.996-.51 2.416-.864 3.957-.336-.384-.84-.895-.97-1.114Zm-42.78-16.965c1.807-4.967 2.615-10.65 2.444-14.696-.052-1.158-1.465-4.263-1.993-6.93a6.879 6.879 0 0 1-.16-1.416c.018-.258-.045-.533.2-.61.94-.35 1.876-.639 2.807-.883.294 1.128.702 2.247.97 3.335.862 3.534 2.031 7.141 2.877 10.758.55 2.357 1.006 4.73 1.109 7.097.1 2.544.53 5.58-.578 7.269-.605.903-1.726 1.167-3.73.692a6.025 6.025 0 0 1-1.358-.492c-.745-.344-1.466-.748-2.168-1.11a24.996 24.996 0 0 0-1.403-.623c.354-.772.687-1.568.983-2.39Zm32.517 95.179c-.965-.328-1.933-.605-2.946-.687-1.104-.12-2.3.024-3.65.584-1.105.483-2.394 1.067-3.605 1.72-1.275.678-2.51 1.392-3.519 2.11l-1.195.872c-1.792-.085-2.916-1.1-4.031-2.095-1.133-1.037-2.244-2.082-3.593-2.854-.91-.501-1.932-.906-3.106-1.073-1.143-.153-2.292-.079-3.4.155-1.835.358-3.651 1.186-5.456 1.859-1.44.522-2.877.992-4.41.748-3.197-.507-5.922-2.115-8.279-4.226-3.814-3.39-6.749-8.048-9.318-12.004-.957-1.462-2.434-3.51-3.515-5.573-.194-.347-.336-.69-.508-1.045-.039-.335-.013-.698-.026-1.094-.05-1.21.076-2.542.46-3.856.55-1.884 1.51-3.688 2.662-4.844.553-.605 1.297-.99 2.078-1.287 2.46-.97 5.397-1.333 7.456-2.664 2.03-1.343 4.03-3 6.083-4.404.83-.544 1.667-1.067 2.527-1.474l4.43-1.61a6.894 6.894 0 0 0 1.043-.633c.866-.635 1.514-1.557 2.425-2.084.76-.467 2.098-.996 3.44-1.452 1.364-.464 2.751-.813 3.654-.936.985-.107 2.177-.2 3.365-.24a23.736 23.736 0 0 1 3.249.084c.504.067.998.29 1.458.55 1.062.565 2.067 1.354 2.952 1.915 3 1.845 5.243 4.23 7.21 6.854 3.2 4.272 5.694 9.138 8.954 13.611 1.214 1.657 2.74 3.158 4.048 4.8.498.597.954 1.211 1.333 1.883.778 1.334 1.323 3.192 1.677 5.079.352 1.938.49 3.965.357 5.526-.147 1.642-1.177 3.7-2.586 5.39-1.328 1.58-2.952 2.93-4.589 2.98-1.21.05-2.183-.3-3.13-.585Z" fill="#004532"/>
</svg>