<svg xmlns="http://www.w3.org/2000/svg" viewBox="0 0 2000 1000"><path id="tree3_left_mobile" class="cls-tree-mobile-2" d="m0 566.174 4.064-2.647c2.25-1.489 4.438-3.027 6.71-4.417a53.372 53.372 0 0 1 4.621-2.542c4.239-2.054 8.662-3.5 13.194-4.67 10.694-2.771 21.95-3.783 32.675-5.965 2.564-.568 5.03-1.105 7.534-1.6a139.26 139.26 0 0 1 5.014-.865c1.429-.192 2.99-.86 4.518-1.143a5.865 5.865 0 0 1 1.6-.108c.458.083.907.284 1.33.569.875.549 1.696 1.263 2.454 1.684.476.27 1.228.476 2.057.553.055.007.112.01.167.016.139.181.357.296.585.22.103.001.195.03.306.004.095 0 .19-.032.284-.033.737-.073 1.593.012 2.477.167 1.72.326 3.536.926 4.734 1.393.327.133.663.238.998.343 1.252.362 2.538.583 3.758 1.026 2.554.923 5.091 2.022 7.704 2.872 1.78.589 3.596 1.066 5.467 1.318 3.225.432 6.403.606 9.587.567 4.731-.01 9.458-.478 14.277-1.039 3.609-.453 7.216-.967 10.789-1.188 1.527-.07 3.06-.137 4.573-.059a27.19 27.19 0 0 1 8.853 1.83c.192.088.379.207.581.245-.024.264-.082.526-.095.791-.136 2.67.254 5.381 1.436 8.16.377.879.626 1.87 1.078 2.744.226.436.496.856.845 1.21 1.534 1.607 3.15 2.906 4.834 4.104 2.513 1.733 5.188 3.18 8.043 4.776 2.448 1.346 5.039 2.159 7.35 3.584.912.56 1.784 1.199 2.575 2.026.724.744 1.63 1.607 2.412 2.523.497.552.938 1.147 1.24 1.729.144.289.263.57.36.874.464 1.426.6 2.961 1.214 4.311.24.533.56 1.03.914 1.506.7.98 1.561 1.89 2.164 2.902 1.699 2.94 3.407 5.79 5.818 7.674 1.702 1.325 3.74 2.208 6.343 2.354 1.127.048 2.266-.174 3.375-.496 1.505-.473 2.97-1.172 4.327-1.69a25.727 25.727 0 0 0 4.254-2.201c5.063-3.196 9.296-7.902 14.85-10.305 4.905-2.118 11.164-3.325 16.27-5.929 3.68-1.893 6.766-4.46 8.453-8.44.662-1.56.947-3.176.986-4.81.051-2.33-.41-4.698-.927-6.993-.782-3.474-2.416-8.922-5.197-12.84-2.054-2.869-4.718-4.923-8.07-4.999-2.136-.03-4.223.261-6.272.685-2.996.645-5.935 1.643-8.895 2.483-2.255.664-6.408 3.231-9.958 4.008-1.438.31-2.766.351-3.732-.378-.927-.717-1.073-1.951-1.158-3.227-.081-1.519-.02-3.114-.31-4.454-.203-.917-.58-1.705-1.2-2.326a6.796 6.796 0 0 0-2.268-1.412c-1.452-.577-3.124-.735-4.753-1.002-1.443-.209-2.85-.498-3.999-1.345-.908-.68-1.608-1.51-2.192-2.455-1.516-2.364-2.434-5.21-4.296-7.318-.379-.454-.665-.97-1.072-1.372a2.49 2.49 0 0 0-.815-.53c-2.705-1.06-5.608-.752-8.488.234-3.994 1.368-7.928 3.974-11.118 5.442-.994.45-2.207.801-3.382 1.286-.263.1-.523.201-.784.333a.562.562 0 0 0-.482-.03c-.29.032-.6.148-.905.296-.861.461-1.707 1.323-2.519 2.318-1.396 1.695-2.62 3.87-3.175 5.22-.016.04-.03.08-.047.121l-11.926-5.398c-.942-.447-2.115-.876-3.033-1.56-.514-.344-.949-.785-1.15-1.396-.242-.686-.226-1.35-.09-2.009.22-1.058.753-2.11 1.16-3.17.313-.816.545-1.627.62-2.457a6.2 6.2 0 0 1 .259-1.381c.104-.346.25-.713.396-1.083.953.07 1.9.074 2.842-.004 2.373-.231 4.717-.837 7.092-1.22 2.14-.335 4.428-.684 6.632-1.242 1.533-.403 3.018-.882 4.393-1.517a10.687 10.687 0 0 0 1.964-1.182c.823-.595 1.584-1.27 2.441-1.916 2.386-1.78 4.538-3.483 6.293-5.613a18.021 18.021 0 0 0 2.938-4.93 11.56 11.56 0 0 0 .683-2.375c.139-.81.185-1.648.123-2.52-.053-.657-.114-1.346-.24-2.025a7.526 7.526 0 0 0-.405-1.407c-1.24-3.131-3.665-4.775-6.582-5.598-3.904-1.132-8.706-.81-12.257-1.192-2.88-.293-6.008-1.578-9.06-2.078-1.444-.27-2.88-.354-4.264-.118-1.758.272-3.482 1.01-5.101 1.966-2.32 1.375-4.451 3.266-6.207 4.97-2.127 2.197-4.264 4.27-6.107 6.556-.628.778-1.254 1.587-1.77 2.43-.047.078-.09.156-.132.234a.655.655 0 0 0-.72.383c-.137.201-.267.404-.381.642-1.143 2.293-1.132 4.642-.48 6.797.666 2.22 2.15 4.33 4.29 6.22.466.391 1.015.72 1.56 1.05-1.015 1.97-2.224 4.085-3.744 6.004-1.106 1.39-2.358 2.673-3.77 3.662-.874.61-1.804 1.05-2.75 1.393-1.53.586-3.13.998-4.711 1.539-2.5.892-5.291 1.357-8.123 1.566a47.95 47.95 0 0 1-8.364-.153c-2.481-.23-4.939-.543-7.396-.918a69.202 69.202 0 0 1-4.863-.884c-.86-.19-1.699-.455-2.552-.668a19.09 19.09 0 0 0 3.442-2.191c3.04-2.429 5.843-5.694 8.822-7.654 4.476-2.954 9.125-6.25 13.236-10.14 2.725-2.559 5.218-5.403 7.257-8.542 3.664-5.645 7.003-12.185 11.077-18.067 2.677-3.884 5.665-7.456 9.295-10.31 2.28-1.783 4.677-3.256 7.13-4.529 5.888-3.059 12.16-5.114 18.274-8.225 2.46-1.253 5.47-2.581 8.073-4.327.92 1.868 1.886 3.678 3.03 5.309 2.433 3.474 5.537 6.245 10.115 7.62 2.333.7 4.88.585 7.285-.185 2.29-.714 4.436-1.991 6.101-3.632 1.19-1.181 2.187-2.514 3.476-3.39a4.517 4.517 0 0 1 2.35-.847 11.48 11.48 0 0 1 5.238.88c2.633 1.069 4.911 2.85 7.852 4.411 1.242.664 2.511 1.183 3.8 1.648 1.867.616 3.774 1.092 5.697 1.634 3.307.884 6.344 1.38 9.11.906 2.939-.511 5.609-2.05 7.932-5.283 1.598-2.21 2.319-4.666 2.467-7.21.205-3.53-.727-7.234-1.81-10.62-1.993-6.231-5.316-12.91-9.664-18.781-4.38-5.913-9.803-10.995-15.94-14.016-5.34-2.648-10.571-.693-15.462-1.952-1.647-.425-3.246-1.261-4.79-2.964-5.088-5.617-5.528-14.712-8.672-21.73-1.547-3.471-3.685-6.487-7.069-8.523-2.098-1.267-3.864-1.668-5.56-1.651-2.367.02-4.576.942-7.562 1.224-1.458.122-2.907-.028-4.332-.322-1.497-.317-2.964-.807-4.378-1.372a21.09 21.09 0 0 1-4.562-2.435c-2.167-1.503-4.064-3.285-6.26-5.223-2.711-2.343-6.38-4.315-10.26-5.562-3.914-1.258-8.029-1.817-11.6-1.26-2.36.265-6.116.276-8.47 1.671l-.096.061c-1.04-.051-2 .014-2.769.32-.873.337-1.557.975-1.98 2-.177.432-.201 1.004-.008 1.612.225.71.932 1.664 1.151 2.159.328.743.485 1.584.364 2.399-.095.671-.407 1.305-1.002 1.758-.979.76-2.05.91-3.138.844-2.188-.107-4.44-1.026-6.507-1.278-1.27-.185-2.595.009-3.895.424-1.692.536-3.329 1.424-4.715 2.209-3.238 1.818-7.011 3.834-9.191 6.716-1.657 2.192-2.491 4.855-1.747 8.227.437 2.026 1.401 3.333 2.608 4.352 1.5 1.232 3.494 1.887 5.233 3.133l3.898 3.233c.02.066.09.363.11.552.044.502.004 1.098-.068 1.716-.278 2.441-1.031 5.252-1.017 6.353.03 3.27 1.286 6.131 3.246 8.512 1.855 2.227 4.342 4.012 6.938 5.313 2.104 1.056 4.052 1.606 5.977 1.935 2.802.452 5.552.4 8.742.699 2.359.222 4.784.738 7.184 1.43 1.145.33 2.266.734 3.394 1.117-.338.783-.636 1.533-.689 1.741-.359 1.777-.711 3.494-.976 5.27a38.77 38.77 0 0 0-.358 3.574c-.285 4.816.292 10.633-.734 15.735-.676 3.353-2.067 6.36-4.84 8.507-.66.524-1.327 1.29-2.06 1.852-.242.168-.5.33-.774.427-.134.05-.22.023-.31-.005-.262-.143-.496-.369-.811-.56-.429-.255-1.022-.442-1.528-.722-.178-.086-.35-.17-.448-.323-.283-.485-.438-1.265-.559-2.064a18.429 18.429 0 0 1-.14-3.578c.233-3.279 1.182-6.607 1.63-9.94.202-1.52.301-3.043.214-4.564-.09-1.46-.703-2.627-1.602-3.579-1.187-1.286-2.916-2.163-4.426-2.82-3.15-1.352-6.764-2.516-10.302-2.467-.854.006-1.714.07-2.56.23-1.147-4.138-4.032-8.18-7.854-10.96-3.226-2.35-7.012-4.056-10.692-3.96-1.045.038-2.049.18-3.045.508-.702.267-1.397.385-2.072.508a43.242 43.242 0 0 1-2.002-.689c-6.122-2.406-13.284-3.219-20.41-2.772a60.62 60.62 0 0 0-17.766 3.968c-.694-2.295-2.408-4.73-4.602-6.684-2.253-2.016-4.998-3.455-7.547-3.767-2.537-.277-4.793-.01-6.905.577-4.812 1.325-8.83 4.392-14.051 5.528-1.12.258-2.218.34-3.325.39-2.432.062-4.84-.197-7.287-.168v2.417c2.47-.046 4.901.217 7.358.15 1.248-.036 2.494-.133 3.77-.433 5.27-1.152 9.336-4.172 14.191-5.576 1.833-.522 3.795-.82 6-.587 2.15.217 4.452 1.457 6.384 3.098 1.974 1.67 3.573 3.76 4.196 5.753-.061.026-.13.046-.19.073-1.638.705-3.88 1.313-5.773 2.182-1.229.529-2.34 1.186-3.229 1.913-1.552 1.28-2.477 2.818-3.029 4.473-.636 1.903-.665 4.026-.718 6.112-.026.967.359 2.063-.617 2.58l-7.181 3.994c-3.575 1.957-8.853 3.592-11.443 6.528-2.575 2.91-3.734 6.812-.642 12.595 2.33 4.328 6.018 8.565 10.414 11.86-1.979 1.512-3.935 2.897-6.008 4.016a32.549 32.549 0 0 0-4.409-4.573c-2.16-1.866-4.5-3.117-6.963-4.011-.694-.247-1.4-.46-2.11-.658v30.859a33.539 33.539 0 0 0 3.236-1.026c1.846-.7 3.7-1.521 5.321-2.262a9.281 9.281 0 0 0 1.363-.73c.923-.595 1.82-1.319 2.677-1.904 3.703-2.587 4.726-5.648 4.28-8.743-.246-1.66-.98-3.339-1.987-4.958 2.277-1.268 4.42-2.842 6.626-4.544 3.33 2.145 6.99 3.675 10.738 4.38-.06.147-.113.296-.179.441-.893 2.005-2.256 3.955-3.077 5.708-2.649 5.66-6.634 10.839-11.266 15.42-4.657 4.602-9.963 8.575-15.222 11.771-.83.505-1.668.972-2.511 1.424v2.19a62.362 62.362 0 0 0 3.51-1.96c5.37-3.313 10.776-7.407 15.521-12.135 4.768-4.751 8.858-10.11 11.573-15.963.934-2.015 2.548-4.275 3.413-6.618 1.394.163 2.793.22 4.186.134a18.772 18.772 0 0 0 3.977-.733c.052-.015.102-.038.154-.054l-.037.273a41.398 41.398 0 0 1-1.086 5.936c-.506 1.974-1.129 3.881-1.84 5.821-.421 1.148-.976 2.132-1.606 3.062-1.024 1.507-2.227 2.866-3.388 4.422-3.851 5.19-8.566 9.258-13.695 12.799C14.09 520.07 6.854 523.79 0 528.043v3.179c8.595-5.665 17.91-10.351 25.93-16.687 3.813-3.01 7.347-6.38 10.357-10.403 1.183-1.58 2.412-2.961 3.458-4.491.737-1.08 1.39-2.246 1.885-3.584a62.28 62.28 0 0 0 1.926-6.038 43.228 43.228 0 0 0 1.166-6.276c.04-.388.12-.897.191-1.452 1.026-.395 2.052-.806 3.086-1.177 1.223-.44 2.453-.876 3.764-.77 1.083.088 2.027.44 2.913.898-1.627 7.93-4.764 15.43-8.749 22.47-4.452 7.866-9.97 15.215-16.177 21.709-3.518 3.71-7.068 7.29-10.924 10.56-2.547 2.157-5.217 4.153-8.09 5.934-3.121 1.946-6.192 3.908-9.435 5.603-.43.218-.865.427-1.3.634v2.22a65.67 65.67 0 0 0 2.217-1.074c3.285-1.682 6.447-3.615 9.634-5.54 3-1.803 5.792-3.821 8.456-6.002 3.973-3.265 7.642-6.837 11.284-10.57 6.416-6.58 12.328-13.959 16.783-22.129 3.874-7.086 6.624-14.73 8.002-22.713.69.553 1.35 1.157 1.969 1.83 1.08 1.174 2.094 2.457 3.08 3.77-1.04 2.258-1.884 4.663-3.167 7.141l-8.304 16.47c-2.904 5.61-8.253 9.416-11.835 14.478-.947 1.349-1.775 2.765-2.427 4.328-.27.647-.025 1.363.985 1.71 1.001.314 3.11.304 3.31.306 2.319-.126 6.543-2.55 9.442-3.286.134-.038.238-.048.363-.078.59.062 1.225.078 1.864.07.075-.005.142.022.213 0 1.918-.044 3.834-.334 4.66-.539 2.968-.684 5.642-1.796 8.178-3.133 2.008-1.055 3.932-2.242 5.873-3.448.568.32 1.768.633 2.122.744 1.41.442 2.462.924 3.705 1.04.776.09 1.635.025 2.689-.285 3.44-.993 6.475-4.338 9.827-6.06.804-.418 1.624-.71 2.48-.837l4.795-1.97c2.092-.32 4.333-.013 6.55-.385.973-.151 1.94-.427 2.893-.92.686-.364 1.291-.845 1.84-1.404 1.143-1.135 2.05-2.648 3.025-3.835 2.9-3.509 5.208-7.05 6.853-10.83 1.663-3.837 2.66-7.911 2.957-12.571.024-.413.151-.898.295-1.398l.012-.03c.041-.11.054-.235.093-.346.102-.346.194-.691.276-1.032.387-1.435.646-2.935.625-4.464-.036-2.052-.474-4.079-1.383-5.795-.218-.419-1.552-2.527-2.183-3.54a58.8 58.8 0 0 0 2.132-1.778c1.044-.985 1.622-2.32 2.309-3.31.037.712.113 1.473.239 2.19.186 1.124.5 2.136.912 2.784.23.346.544.627.926.838.555.327 1.266.519 1.767.798.483.273.845.57 1.27.702.388.122.833.14 1.398-.08.434-.137.857-.4 1.257-.732.723-.596 1.365-1.37 2.006-1.9 3.01-2.5 4.436-5.861 5.136-9.572.983-5.176.543-11.042.864-15.907a38.67 38.67 0 0 1 .427-3.431c.289-1.738.658-3.45 1.022-5.164.036-.204.258-.897.511-1.622 2.044.727 4.046 1.481 5.934 2.21 1.106.439 2.26.74 3.444.958.435.083.882.125 1.322.19.06 2.856.027 5.644-.356 8.43-.284 2.075-.764 4.179-1.573 6.302-.394 1.034-1.408 3.763-1.514 5.771-.082 1.528.402 2.685 1.4 3.12 2.004.903 4.406.559 6.859-.53 4.592-2.035 9.42-6.676 11.976-8.647l4.316-3.789c2.186 3.111 3.782 6.716 5.446 10.206-2.601 1.755-5.638 3.044-8.118 4.305-6.14 3.072-12.427 5.092-18.34 8.113-2.548 1.304-5.022 2.783-7.398 4.628-3.765 2.902-6.893 6.583-9.685 10.583-4.116 5.87-7.5 12.425-11.204 18.059-1.975 3.006-4.392 5.722-7.029 8.186-4.04 3.76-8.619 6.987-13.024 9.87-3.038 2.004-5.896 5.282-8.987 7.726-1.294 1.026-2.633 1.916-4.051 2.446a16.17 16.17 0 0 1-4.32.962c-6.101.616-12.495-1.205-18.883.326a214.1 214.1 0 0 0-6.97 1.867c-9.234 2.59-18.546 5.764-27.493 7.956-3.162.777-7.184 1.466-10.904 2.524-2.635.758-5.134 1.742-7.093 3.016-4.428 2.93-9.193 5.413-13.983 7.884v2.16c5.15-2.645 10.298-5.28 15.054-8.397 1.82-1.197 4.125-2.059 6.562-2.757 3.7-1.065 7.7-1.76 10.833-2.515 2.3-.56 4.62-1.172 6.963-1.84 9.06-2.582 18.364-5.729 27.492-7.955 6.296-1.53 12.606.295 18.612-.32a18.893 18.893 0 0 0 4.126-.9l4.027 1.262a75.31 75.31 0 0 0 6.18 1.297c2.065.343 4.142.598 6.23.826 2.734.309 5.715.42 8.667.218 2.99-.19 5.943-.696 8.58-1.606 1.606-.563 3.226-.97 4.768-1.552 1.085-.422 2.14-.944 3.133-1.638 1.537-1.103 2.9-2.504 4.094-4.049 1.545-1.998 2.803-4.231 3.83-6.296.525.249 1.04.512 1.6.717 2.392.841 5.004 1.355 7.15 1.876.38.092.754.105 1.132.164-.202.375-.418.747-.574 1.138a6.678 6.678 0 0 0-.37 1.285c-.15.868-.572 1.71-.962 2.563-.437.96-.85 1.927-1.06 2.897-.213.97-.219 1.942.125 2.964.33.927.977 1.647 1.78 2.234 1.007.712 2.271 1.2 3.287 1.7l2.418 1.124c3.22 1.466 6.518 2.805 9.64 4.302h.01c-.53 1.369-1.026 2.734-1.426 4.097-.048-.024-.083-.058-.142-.077-.837-.323-3.218-.338-3.584-.453-1.81-.69-3.806-1.193-5.88-1.568-2.96-.594-6.061-.956-8.928-1.337-1.738-.21-3.467-.417-5.212-.568-4.038-.382-8.079-.674-12.129-1.029-3.015-.275-6.08-.656-9.146-.826-2.073-.132-4.142-.17-6.202-.024-.953.067-1.893.198-2.825.363-2.124.37-4.206.936-6.315 1.28-.921.169-1.99.169-3.078.072-1.675-.13-3.398-.456-4.742-.756-.48-.09-1.342-.268-2.071-.283-.423-.011-.808.02-1.088.116-.467.188-.926.35-1.352.612-.065.038-.117.084-.178.124a1.035 1.035 0 0 0-.635-.196c-.46.038-1.214.015-1.962-.067-.632-.045-1.252-.148-1.605-.35-.86-.514-1.796-1.417-2.814-2.01-.572-.301-1.16-.546-1.766-.645-.758-.116-1.544-.058-2.342.088-1.49.234-3.024.85-4.422 1.021-1.75.213-3.456.47-5.147.763-2.532.456-5.027.953-7.618 1.481-9.216 1.895-18.83 2.872-28.124 4.925-6.322 1.4-12.48 3.278-18.277 6.153a58.482 58.482 0 0 0-4.81 2.727c-2.29 1.415-4.505 2.945-6.789 4.484L0 563.318v2.856Zm71.902-45.028a105.85 105.85 0 0 1 3.817-2.276c1.74-.979 3.652-1.628 5.451-2.527.482-.245.95-.494 1.41-.776a34.61 34.61 0 0 1 5.223-2.598c1.817-.74 3.662-1.35 5.605-1.96.568-.188 1.11-.414 1.65-.702 1.813-.985 3.494-2.53 5.361-3.285.952-.372 2.299-.499 3.43-.814.665-.188 1.264-.427 1.748-.793 2.722-1.95 5.266-4.747 7.513-7.912 1.772-2.483 3.333-5.183 4.679-7.858-.461 2.411-1.126 4.69-2.043 6.856-1.558 3.686-3.744 7.083-6.51 10.512-.817 1.023-1.568 2.25-2.463 3.28-.548.651-1.146 1.225-1.866 1.609-.796.42-1.604.655-2.422.795-2.201.376-4.443.1-6.53.45-.393.06-.776.184-1.146.312-1.25.522-2.382 1.477-3.63 1.665-1.004.173-1.97.54-2.908 1.038-3.26 1.69-6.187 5.068-9.54 6.058-.861.248-1.57.331-2.206.253-1.16-.09-2.135-.547-3.448-.958l-1.175-.369Zm-9.359-30.071a91.13 91.13 0 0 1-.472 3.194 154.733 154.733 0 0 1-1.285 6.422c-.615 2.824-1.75 5.91-3.159 8.85-1.423 2.967-3.118 5.788-4.887 8.127l-6.485 7.87c-.257.358-.174.8.09 1.125.017.508.225.955.574 1.335-2.48 1.026-5.29 2.519-7.023 2.614-.129.02-1.45-.15-2.195-.23a20.697 20.697 0 0 1 1.98-3.188c3.773-5.094 9.278-8.883 12.369-14.525l8.376-16.508c.848-1.747 1.482-3.444 2.117-5.086Zm41.733-17.059a11.746 11.746 0 0 0 2.684-3.302c.243-.449.403-.886.57-1.324 1.821.969 3.962 1.368 6.286.883 1.018-.239 1.942-.656 2.812-1.198.634 1.038 1.83 2.927 2.03 3.325.766 1.49 1.118 3.245 1.135 5.018.007.719-.078 1.435-.179 2.144-.258.202-.441.482-.39.846l-.477 2.494c-1.383 3.567-3.353 7.598-5.767 11.33-2.464 3.798-5.377 7.272-8.575 9.56-.298.212-.68.335-1.097.449-1.204.323-2.626.456-3.648.867-1.939.763-3.704 2.342-5.588 3.336a6.731 6.731 0 0 1-1.285.542c-2.41.738-4.68 1.488-6.92 2.462a37.923 37.923 0 0 0-4.411 2.273l-6.81 3.228c-3.814 2.156-7.26 4.549-10.964 6.526-2.38 1.295-4.858 2.407-7.644 3.118-.757.202-2.548.516-4.322.598-.56-.198-1.27-.227-2.096-.071-.59-.083-1.119-.21-1.472-.44a1.112 1.112 0 0 1-.258-.204l6.546-7.484c1.924-2.413 3.78-5.304 5.35-8.377 1.586-3.098 2.857-6.325 3.59-9.325.438-1.813.878-3.625 1.226-5.435.188-.978.296-2.001.44-3.006 1.39 1.838 2.808 3.551 4.357 4.906 1.686 1.473 3.572 2.521 5.593 3.277 2.445.948 5.087 1.472 7.635 2.119 3.099.788 6.515 1.707 9.64 1.407 2.797-.281 5.425-1.316 7.65-3.757 2.718-2.986 3.203-6.186 2.415-9.571-.572-2.434-1.952-4.969-3.217-7.467-.801-1.592-1.755-3.08-1.578-4.578.151-1.171 1.39-1.605 2.454-2.277 1.448-.887 2.993-1.773 4.285-2.892Zm19.686-23.017c-.403 3.256-1.208 6.491-1.438 9.678-.407.171-.769.45-1.1.8-.821.87-1.41 2.36-2.556 3.311-.99.878-2.022 1.865-3.176 2.63-.71.478-1.456.854-2.289 1.08-1.992.485-3.84.146-5.411-.702.286-1.434.267-2.828.005-4.191-.327-1.687-1.067-3.32-1.852-4.968-.657-1.394-1.468-2.745-1.46-4.296-.055-2.029.792-3.683 1.49-5.323.796-1.882 1.518-3.728 1.769-5.752.111-.92.099-1.896.009-2.9a12.612 12.612 0 0 1 3.763-.183c2.707.27 5.388 1.232 7.78 2.287 1.239.54 2.687 1.208 3.66 2.274.542.566.923 1.265.976 2.135.09 1.368 0 2.741-.17 4.12Zm2.105-81.707-.406.078c.054-.181.121-.352.236-.483.025-.028.063-.027.09-.048.017.155.042.304.08.453Zm7.01-1.963-.01.028-.005.029-.014-.005.028-.052Zm38.112 77.392-4.447 3.632c-2.196 1.628-6.087 5.13-10.001 7.285-2.516 1.405-5.013 2.298-7.04 1.388-.178-.086-.175-.298-.197-.55-.051-.38-.01-.855.07-1.348.26-1.686 1.013-3.643 1.327-4.459 1.082-2.86 1.638-5.671 1.845-8.47.172-2.223.115-4.46.01-6.715 1.46.18 2.914.356 4.314.636 1.334.266 2.631.733 3.897 1.283 1.99.867 3.882 2.009 5.674 3.118 1.81 1.144 3.273 2.592 4.549 4.2ZM148.49 520.66c-2.076-.499-4.616-.96-6.943-1.75-1.464-.49-2.849-1.107-3.94-1.997-1.904-1.511-3.281-3.192-3.94-5.074-.633-1.752-.549-3.615.114-5.631.046-.138.09-.307.133-.446.193-.244.385-.489.58-.732.6-.757 1.203-1.543 1.84-2.257 1.935-2.166 4.112-4.104 6.298-6.16 1.672-1.64 3.683-3.447 5.89-4.765 1.437-.86 2.948-1.483 4.517-1.753 1.2-.173 2.448-.086 3.713.128 3.073.567 6.24 1.864 9.155 2.169 3.451.411 8.136.082 11.93 1.21 2.35.707 4.341 2.001 5.326 4.534.135.347.225.71.294 1.067.106.613.155 1.207.189 1.826.05.687.002 1.372-.109 2.008a9.772 9.772 0 0 1-.59 1.978 16.052 16.052 0 0 1-2.685 4.368c-1.678 1.972-3.739 3.52-6.009 5.155-.857.615-1.628 1.287-2.462 1.878-.486.335-1.006.66-1.594.933-1.257.55-2.613.948-4.003 1.274-2.148.515-4.372.823-6.453 1.115-2.318.34-4.629.956-6.951 1.172-1.422.133-2.85.112-4.3-.25Zm19.585 44.193c-.236-1.202-.385-2.193-.442-3.216-.054-1.023-.028-2.05.071-3.268.28-3.569.936-6.837 2.19-9.856 1.249-2.99 3.086-5.704 5.731-8.136.817-.749 2.644-1.639 4.538-2.355 1.894-.716 3.85-1.23 4.952-1.19.916.044 1.734.33 2.491.781 1.897 1.113 3.466 3.067 5.273 4.243.87.577 1.735.879 2.599 1.058 1.936.364 3.89-.03 5.955.618a37.234 37.234 0 0 1 4.506 1.778c1.558.763 3.068 1.602 4.178 2.407.698.523 1.4.53 2.084.409.507-.084.986-.3 1.401-.078.147.068.26.238.388.439.046.977.124 1.937.378 2.786.278.88.74 1.634 1.473 2.199 1.347 1.001 3.175 1.117 5.174.677 3.586-.795 7.787-3.378 10.059-4.037 2.917-.822 5.823-1.83 8.778-2.458 1.923-.403 3.876-.674 5.87-.628 2.8.055 4.97 1.863 6.666 4.284 2.625 3.717 4.118 8.907 4.84 12.21.473 2.13.896 4.364.836 6.539-.042 1.388-.284 2.744-.863 4.086-1.528 3.543-4.32 5.775-7.588 7.401-5.092 2.548-11.324 3.702-16.207 5.767-5.677 2.394-10.057 7.114-15.226 10.338a24.472 24.472 0 0 1-3.873 1.985c-1.307.505-2.714 1.191-4.162 1.651-.858.25-1.732.432-2.606.402-2.087-.076-3.74-.746-5.138-1.763-2.252-1.711-3.863-4.288-5.504-6.935-.638-1.084-1.554-2.01-2.3-3.037a5.86 5.86 0 0 1-.733-1.205c-.6-1.254-.716-2.722-1.162-4.08a8.812 8.812 0 0 0-.476-1.125c-.359-.722-.893-1.407-1.48-2.11-.81-.924-1.744-1.795-2.478-2.574a13.807 13.807 0 0 0-2.949-2.295c-2.333-1.432-4.943-2.25-7.407-3.632-2.808-1.55-5.45-2.927-7.913-4.644-.382-.265-.746-.568-1.12-.85l-.48-1.51c-.132-.437-.277-.818-.324-1.076Zm-5.572-11.284c.174-3.784 1.462-7.493 2.953-11.23.506-1.273 1.625-3.299 2.898-4.88.67-.826 1.397-1.512 2.08-1.969.188-.124.35-.255.53-.321a.628.628 0 0 0 .25-.135c.344-.136.693-.24 1.045-.373 1.22-.44 2.45-.847 3.464-1.29 3.164-1.416 7.075-3.968 11.037-5.285 2.581-.867 5.175-1.18 7.58-.213.205.094.357.233.489.396.301.369.533.807.837 1.177 1.768 2.108 2.571 4.919 4.002 7.256.668 1.124 1.48 2.11 2.54 2.929 1.098.862 2.404 1.302 3.779 1.58 1.794.38 3.72.436 5.348 1.068.61.252 1.179.583 1.674 1.043.8.8.86 2.097.91 3.453l.012.292c-.478-.19-1.007-.146-1.563-.047-.514.083-1.075.242-1.61-.17-1.154-.848-2.72-1.735-4.347-2.52-1.603-.776-3.266-1.45-4.644-1.882-2.103-.659-4.099-.28-6.063-.682a5.99 5.99 0 0 1-2.19-.869c-1.817-1.209-3.414-3.142-5.333-4.261-.923-.534-1.91-.904-3.02-.947-1.198-.04-3.332.51-5.389 1.297-2.042.791-3.996 1.794-4.875 2.615-2.738 2.554-4.648 5.428-5.917 8.534-1.263 3.108-1.915 6.499-2.169 10.167-.082 1.254-.098 2.315-.028 3.373.07 1.058.228 2.113.488 3.352.061.263.186.728.382 1.155.067.172.148.33.225.496a27.303 27.303 0 0 1-2.462-2.263c-.325-.315-.54-.718-.721-1.14-.337-.745-.56-1.547-.874-2.285-1.078-2.532-1.432-4.988-1.318-7.42Zm-72.278-9.577c.245-.063.488-.127.74-.173.213-.055.516-.021.836.018.575.09 1.191.252 1.558.336 1.41.32 3.22.674 4.98.8 1.227.11 2.436.093 3.475-.1 2.112-.373 4.194-.94 6.324-1.338a32.511 32.511 0 0 1 2.655-.356c1.988-.138 3.995-.118 6.002-.007 3.047.163 6.103.511 9.108.753 4.05.325 8.1.558 12.136.91 1.728.145 3.45.32 5.162.552 2.847.344 5.93.67 8.871 1.227 2.01.355 3.944.84 5.714 1.455.363.145 2.751.223 3.625.466.028.01.076-.006.092-.001 0-.03.001-.091-.015-.096-.067-.021-.05-.077-.043-.136a.465.465 0 0 0 .197.28c-.24.928-.43 1.858-.57 2.79-.074-.027-.147-.055-.215-.085-2.978-1.513-6.117-2.131-9.275-2.39a36.943 36.943 0 0 0-4.775-.065c-3.614.147-7.266.708-10.917 1.148-4.75.583-9.403 1.044-14.077 1.102-3.092.036-6.19-.112-9.331-.518-1.763-.218-3.473-.662-5.148-1.218-2.6-.845-5.131-1.913-7.68-2.803-1.264-.427-2.593-.63-3.886-.975l-.877-.275c-1.195-.431-2.942-1.022-4.666-1.301Zm71.275 4.571.003-.03.003.002c.003 0 0 .03-.006.028Z" fill="#012d20"/></svg>