<svg xmlns="http://www.w3.org/2000/svg" viewBox="0 0 2000 1000"><path id="tree1_left" d="M1116.703 442.699c-1.818-1.157-2.644-3.14-2.148-5.123.496-2.313-.496-3.14-4.462-3.966-2.81-.66-5.123-1.983-5.123-3.14s-2.974-2.478-6.775-2.974c-3.8-.496-8.593-2.479-10.74-4.627-2.975-2.809-6.941-3.966-15.038-4.792-10.742-1.157-10.411-1.157 6.444-1.487 9.75 0 18.012-.827 18.508-1.653.496-.826 2.314-1.156 3.966-.826 1.487.496 4.296-.33 6.114-1.653 3.305-2.313 3.14-2.478-1.322-4.13-2.644-.992-5.618-1.818-6.775-1.818-1.322 0-1.983-1.488-1.487-3.801s-.33-4.792-1.818-5.95c-2.148-1.817-2.314-2.808-.826-4.626 1.487-1.652 1.487-3.14.165-5.949-.992-1.983-1.818-5.123-1.487-6.94.33-2.644-.827-3.47-6.28-4.131-5.949-.661-6.61-1.322-6.114-5.123.33-2.479-.826-5.288-2.81-7.106-2.478-2.148-2.974-4.296-2.313-8.428.661-4.296.166-5.783-2.974-8.097-2.148-1.487-5.453-2.644-7.27-2.644s-5.454-1.983-8.098-4.296c-3.8-3.47-4.296-4.627-2.479-5.784 1.322-.826 2.81-1.487 3.47-1.487s2.314-1.157 3.801-2.644c1.983-1.983 2.148-3.14.826-4.792-1.487-1.818-.495-2.644 4.958-4.131 8.262-2.149 7.932-5.454-.496-6.775-3.47-.496-6.61-1.488-7.27-1.984-.497-.66.99-3.635 3.47-6.94 6.444-8.428 5.287-11.402-4.628-12.063-6.444-.496-8.097-1.157-8.923-3.966-.826-3.14-1.652-3.305-11.237-2.313-9.75.991-10.245.826-9.419-2.314.826-2.974.165-3.305-6.775-3.305-4.131 0-7.602-.826-7.602-1.652 0-.992-2.644-1.653-5.783-1.653-3.636 0-7.106-1.322-9.089-3.305-1.818-1.818-4.792-3.305-6.61-3.305s-3.966-1.322-4.462-2.974c-1.487-3.966-3.8-5.288-9.915-5.288-4.13 0-5.122-.661-4.461-2.479.826-1.983-.496-2.478-6.61-2.478-5.453 0-7.601-.662-7.601-2.314 0-3.14-4.297-4.462-8.924-2.644-3.305 1.157-4.131.826-4.792-1.818-.661-2.479-2.314-3.14-7.436-3.14-8.758 0-11.898-1.322-11.898-5.122 0-2.314 1.157-3.14 4.627-3.14 2.479 0 7.766-.991 11.898-2.313 5.783-1.818 7.436-2.975 7.27-5.784 0-2.314.827-3.47 2.975-3.47 4.131 0 3.8-1.157-1.818-6.776-3.305-3.14-6.61-4.792-9.915-4.792-2.809 0-5.122-.826-5.122-1.817s-2.644-1.488-6.61-1.322c-3.47.33-6.94 0-7.602-.662-.66-.66-2.644-1.156-4.461-1.156-2.148 0-2.81-.826-2.148-2.479.495-1.322.165-2.479-.662-2.479s-1.156-.991-.66-2.313c.66-1.818-.827-2.81-4.958-3.636-3.305-.495-5.949-1.817-5.949-2.643 0-.992-3.8-1.323-9.089-.992-6.94.33-9.088 0-9.088-1.818 0-1.652-1.653-1.983-6.445-1.157-5.453.827-6.445.496-7.27-2.313-1.157-4.296-5.784-5.949-9.585-3.635-2.148 1.322-3.14 1.322-3.47 0-.992-2.81-10.907 1.156-16.36 6.279-2.809 2.644-4.792 3.636-5.453 2.479-1.983-3.14-7.601-1.983-11.733 2.148l-4.13 4.131-.992-4.131c-1.157-4.792-2.644-4.958-6.61-1.157-2.148 2.148-3.14 2.314-3.636.826-.991-2.974-3.304-2.313-4.461 1.322-.661 1.818-1.818 2.975-2.644 2.479-.826-.66-1.488.496-1.488 2.479 0 3.14-.66 3.305-6.114 2.313-3.47-.495-7.105-1.983-8.097-3.305-1.157-1.487-5.288-2.313-11.567-2.313-7.436 0-9.089-.496-7.602-1.983 3.305-3.305 2.314-6.28-2.148-6.28-3.635 0-3.966-.33-2.148-3.304 1.157-1.653 1.487-3.801.661-4.462-2.644-2.644-18.343-1.157-25.613 2.479-8.924 4.296-8.263 4.296-7.271.33.991-3.966-.827-4.131-8.593-.992-2.975 1.322-7.106 1.984-8.924 1.488-1.983-.496-6.444.33-10.08 1.817-8.593 3.47-9.915 3.305-9.915-.66 0-4.628-2.974-4.132-5.288.826l-1.817 3.966-4.462-3.14c-5.619-3.966-8.262-4.131-8.262-.661 0 1.818-.992 2.313-3.47 1.487-3.306-1.157-3.306-.991-.662 3.14 1.653 2.479 2.149 4.957 1.322 6.61-.991 1.983-3.305.991-12.063-5.619-11.898-8.923-16.36-10.74-17.681-7.436-.661 1.983-1.487 1.983-4.627-.165-2.314-1.487-5.453-2.148-7.436-1.487-1.818.495-3.305.33-3.305-.661 0-2.479-8.428-11.898-9.75-10.907-.66.33-3.8-1.817-6.775-4.957-4.131-4.296-4.957-5.784-2.81-5.784 4.462 0 .166-7.27-6.774-11.237l-6.114-3.635h5.453c6.94 0 5.618-2.644-3.636-6.775-3.635-1.653-6.114-3.14-5.122-3.14 3.966 0-3.14-3.966-11.072-5.784-4.792-1.322-7.106-2.313-5.123-2.313 1.983-.165 3.966-.826 4.462-1.653 1.487-2.313-5.618-3.47-16.36-2.313-9.419.991-9.75.826-7.436-1.983 2.314-2.81 2.149-2.975-5.122-2.148l-7.602.826.166-5.784c.165-3.14-.661-6.114-1.653-6.444-.991-.33-5.618 2.148-10.41 5.287-7.106 4.958-8.593 5.454-7.767 2.81 1.322-3.801-.33-8.593-2.81-8.593-.99 0-4.13 2.313-7.105 5.122l-5.123 4.958-.991-4.627q-.992-4.792-14.707-5.123c-17.186-.33-34.207-3.47-37.842-7.105-1.653-1.653-7.106-3.801-12.559-4.958-5.288-1.157-8.262-2.313-6.61-2.81 7.106-1.486.992-6.61-9.75-8.096-4.461-.496-9.088-1.983-10.245-3.305-1.487-1.487-7.105-2.148-18.673-2.148-11.898 0-16.194-.496-16.029-1.983.661-2.81-14.542-4.462-26.77-3.14-7.271.826-9.915.66-9.915-.826 0-4.958-11.732-4.132-22.804 1.652-6.94 3.47-7.436 3.305-4.296-1.487 5.122-7.767-2.644-10.08-14.212-4.131-3.635 1.818-6.775 3.305-7.27 3.305s-.331-2.644.165-5.784c1.156-6.94.33-7.106-11.898-1.818l-9.089 4.131v-4.13c0-5.289-1.157-5.123-8.428 1.982l-6.279 6.114-.991-6.114c-1.488-7.27-2.975-7.436-8.924-.991-4.462 4.957-4.462 5.122-7.601 1.652-2.975-3.14-2.975-3.305.495-3.305 1.983 0 3.636-.66 3.636-1.652 0-2.314-6.61-8.097-14.046-12.063l-6.61-3.636 7.932-.826 8.097-.826-4.792-4.297c-2.48-2.479-6.776-5.122-9.585-6.114l-4.957-1.653 4.627-.165c7.27-.165 5.288-4.957-3.8-8.923-3.636-1.653-4.628-2.644-2.81-2.644 4.462-.165 2.81-5.784-1.983-6.445-3.14-.496-3.47-.991-1.653-2.148 1.983-1.322 1.983-1.818-.165-3.14-2.644-1.983-23.795-1.322-28.422.661-2.149.992-2.975.661-2.975-1.322 0-2.974-5.949-6.61-9.089-5.288-1.487.496-1.982 0-1.322-1.652 1.322-3.47-6.94-2.975-18.673.991-8.923 3.14-9.914 3.14-11.732.661-2.314-3.305-5.453-1.652-5.453 2.81 0 2.809-.496 2.974-3.305 1.487-1.818-.992-2.975-2.479-2.48-3.47.662-.827-3.304-1.488-9.749-1.488-7.27 0-11.236-.66-12.063-2.313C110.18 2.478 104.23 0 97.951 0h-.013v393.23c1.975-.798 7.916-1.427 13.398-1.427 9.254-.166 10.08.165 9.254 3.14-.827 3.14 1.322 4.296 7.436 3.47 2.974-.496 2.478 1.652-1.653 5.948-3.14 3.305-3.305 4.132-1.322 5.454 1.322.826 5.453 1.652 9.089 1.652 6.114.165 6.28.33 2.479 1.818-2.314.991-14.873 3.966-28.093 6.61a727.934 727.934 0 0 0-10.588 2.205v27.624c9.599-3.551 21.82-7.6 28.766-9.669 14.541-4.131 34.867-16.029 38.172-22.143 1.157-2.148 2.81-2.974 5.288-2.314 1.983.33 6.28.166 9.419-.66 3.305-.662 7.106-.662 8.923.33 1.653.826 4.793 1.157 6.94.66 2.48-.495 3.967 0 3.967 1.323 0 2.644 3.8 4.131 10.41 4.131 4.793 0 4.627.33-4.461 5.784-5.288 3.14-13.055 8.593-17.186 12.063-31.807 26.159-50.392 34.4-90.238 36.997v33.834c4.434-1.628 9.319-3.415 14.72-5.393 34.537-12.559 56.845-24.952 77.501-42.469 8.262-7.105 27.596-19.168 31.067-19.334.495 0 1.322.827 1.652 1.653.33.992 4.296 2.148 9.089 2.644 5.783.826 8.262 1.818 7.766 3.14-.991 2.313 7.271 9.419 9.254 8.262.826-.496 1.818.496 2.314 2.148 1.487 4.462 8.592 7.271 19.995 7.767 5.453.33 12.063 1.322 14.541 2.313 6.28 2.479 8.759 2.314 11.733-.66 1.322-1.323 2.81-1.818 3.305-.992 1.157 1.817-31.727 39.66-64.942 74.857-19.004 20.16-27.101 30.405-41.147 51.722-28.753 43.956-32.389 48.418-44.452 54.036-13.385 6.445-22.639 14.708-34.537 30.737-5.612 7.482-11.831 15.335-17.86 22.61v87.837c9.056-20.39 16.68-34.175 30.75-56.246 8.262-12.89 15.864-24.787 17.02-26.77 4.627-7.271 19.5-22.144 28.092-27.762 4.793-3.305 16.856-9.419 26.605-13.385 23.796-9.915 49.905-23.796 77.667-41.312 23.63-14.707 31.066-20.49 80.145-62.794 32.554-28.257 36.19-30.901 44.947-33.71 3.305-1.157 5.784-2.644 5.453-3.14-.33-.661 1.323-1.157 3.636-1.322 2.479 0 10.41-1.322 17.516-2.81 7.271-1.487 25.448-3.14 41.312-3.635 15.534-.496 33.05-1.818 38.999-2.644 23.795-3.8 27.43-3.8 31.231 0 1.818 1.818 3.47 5.453 3.636 7.932 0 2.644.496 3.635.991 2.479 1.488-3.636 3.47-2.148 8.593 6.28 6.775 11.07 10.741 11.236 9.254.33l-.991-7.767 5.783 6.114c4.462 4.627 5.95 7.602 5.95 11.898 0 3.14.495 6.775.99 8.262 1.984 5.288 3.967 2.48 4.132-6.114 0-6.28.496-7.767 1.487-5.288.826 1.818 1.487 5.288 1.487 7.767.166 5.784 3.14 5.949 4.462.496 2.314-9.089-.165-24.953-4.792-32.058-5.453-8.263-5.453-8.428-.33-8.428 4.296 0 5.453-2.975 2.313-6.114-1.157-1.157 3.635-2.975 17.02-6.114 10.246-2.48 21.978-5.619 26.11-7.106 10.08-3.636 28.257-17.186 33.875-25.283 6.28-8.923 14.707-16.525 27.431-24.126 10.411-6.28 10.741-6.28 28.754-6.61 23.3-.33 33.049-1.322 35.858-3.636 1.322-.991 3.14-1.156 4.462-.33 1.818.991.991 2.479-3.305 6.444-4.627 4.297-5.288 5.288-3.14 6.776 1.322.826 3.47 1.322 4.792.826 1.488-.661 1.818 0 1.157 1.652-.66 1.983.661 2.48 7.271 2.48 10.41 0 16.525 2.808 16.525 7.435 0 4.297 2.313 6.61 8.758 8.097 2.479.496 4.462 1.983 4.462 3.305 0 2.81 3.966 6.28 5.618 4.792.496-.66 3.8-1.156 7.106-1.156q6.28-.166 7.601-8.924c1.157-6.444 2.148-8.593 4.296-8.593 1.488 0 4.132-.991 5.784-2.148 2.644-1.983 3.966-1.818 9.089.826 3.47 1.818 8.097 2.81 10.906 2.48 3.305-.497 5.619.165 6.94 1.982 1.653 2.148 2.48 2.314 5.288.496 2.81-1.653 3.47-1.653 3.47.33 0 4.462 4.793 7.767 8.428 5.95 2.81-1.653 3.14-1.157 3.14 3.14 0 3.965.826 5.287 4.131 6.113 3.801.992 13.881-.826 21.482-3.8 2.149-.661 2.644-.496 1.818.826-1.983 3.14 7.106 2.313 15.203-1.322 3.8-1.818 6.61-2.479 5.949-1.487-.661 1.321 1.322 1.652 6.61 1.321 5.288-.495 7.601 0 7.601 1.322 0 2.644 5.288 2.81 7.767.331 1.487-1.487 4.296.165 11.237 6.61 8.592 7.767 15.698 10.906 15.698 6.775 0-.826 2.644.33 5.95 2.479 6.113 4.131 15.532 5.618 15.532 2.313 0-.991 2.81.33 6.28 2.975 3.305 2.809 7.106 5.453 8.262 6.114 2.148 1.322 15.203-3.8 15.203-5.949 0-.826 1.487-.661 3.14.33 1.818.827 4.957 1.653 6.94 1.653 2.81 0 3.305-.661 2.644-3.47-.826-3.14-.495-3.47 4.297-2.479 2.974.661 10.08 1.652 15.863 2.148l10.576.992-.991-4.132c-.992-3.8-.496-4.296 4.792-5.287 4.792-.992 5.618-1.653 4.792-4.462-.826-2.644-.33-3.14 3.305-3.14 4.627 0 4.792-1.818 1.487-10.576-.495-1.487-.165-2.644.827-2.644s1.817-1.156 1.817-2.479c0-3.14 6.28-3.14 18.178 0 13.054 3.47 18.177 3.305 18.177-.826 0-1.817.826-3.305 1.652-3.305 2.81 0 1.818-6.444-1.487-8.427ZM170.825 652.068c-.496.495-1.983.66-3.14.165-1.322-.496-.826-.992.992-.992 1.817-.165 2.809.33 2.148.827Zm9.915 0c-.496.495-1.983.66-3.14.165-1.322-.496-.826-.992.992-.992 1.817-.165 2.809.33 2.148.827ZM332.933 427.66c4.792-3.305 8.262-4.296 16.029-4.462l9.915-.165-12.724 8.428c-10.741 7.106-13.055 8.097-16.03 6.445-5.122-2.644-4.296-5.454 2.81-10.246ZM247.83 612.573c-1.156.331-3.14.331-4.13 0-1.158-.495-.331-.826 1.982-.826s3.14.33 2.148.827Zm212.178-99.314c-.495.496-1.983.662-3.14.166-1.321-.496-.825-.992.992-.992 1.818-.165 2.81.33 2.148.827Zm-.165-22.308c-3.305 3.8-5.288 4.462-19.003 5.453-35.033 2.81-46.766 8.759-110.882 56.515-31.397 23.3-72.048 49.574-97.496 63.125-5.949 2.974-13.88 7.436-17.847 9.75-3.965 2.313-7.436 3.8-7.766 3.47-.33-.33.826-6.61 2.644-13.716 5.949-23.465 10.906-30.57 54.366-78.493 32.058-35.197 41.973-46.6 50.236-57.175l8.427-10.742 11.402-.66c13.22-.827 16.69-2.975 11.733-7.106-2.148-1.818-3.14-4.297-2.81-7.436.497-3.801 2.975-6.28 13.22-12.89 7.602-4.792 14.542-8.097 17.352-8.097 4.13 0 4.626.496 4.13 4.462-.33 3.8.166 4.792 3.306 5.123 3.635.495 3.8.826 1.156 3.635-5.948 6.61 2.975 19.004 10.742 14.872 2.974-1.652 3.47-1.487 2.974.992-.66 4.296 6.445 7.601 13.55 6.28 3.14-.662 11.402-1.158 18.178-1.323 15.533-.33 21.482-2.644 21.482-8.428 0-4.957 1.817-5.287 5.783-.826 2.48 2.644 2.644 4.131 1.157 7.271-1.983 4.462-1.157 5.95 3.47 5.95 2.81 0 2.644.495-1.322 5.122-4.957 6.114-4.627 8.593 1.322 9.75l4.297.826-3.8 4.296Zm166.074-75.188c6.445-.66 13.385-1.817 15.368-2.643 4.131-1.818 4.297-1.818 8.263-.166 5.287 1.983-9.42 7.106-23.3 8.097-10.08.662-12.064.33-12.064-1.652s2.975-2.81 11.733-3.636Zm-54.532-81.962c3.14-.827 4.132-2.149 4.462-7.271.496-5.95.661-6.114 3.636-3.47 2.478 2.313 3.305 2.313 4.461.495.992-1.817 2.975-1.983 8.428-.826 3.8.661 6.61 1.983 6.114 2.975-.66.826.165 1.487 1.487 1.487 3.305 0 3.305 2.313.166 4.957-1.818 1.487-1.983 2.644-.827 4.131 1.322 1.488 1.157 2.314-.165 2.81-.991.33-2.148 2.148-2.313 3.8-1.322 10.907-5.123 13.55-9.75 6.775-1.322-2.148-4.792-4.461-7.601-5.122-3.636-.826-4.958-1.818-4.297-3.47.661-1.488-.66-3.14-3.47-4.462l-4.296-1.983 3.966-.826ZM558 321.406c.992.496 1.653 1.653 1.653 2.644 0 .826-.661 1.487-1.653 1.487-.826 0-1.652-1.157-1.652-2.644 0-1.322.826-1.983 1.652-1.487Zm-75.683 84.607-4.297-1.983 4.958-.992c5.784-.991 5.949-.991 4.627 2.314-.826 2.148-1.653 2.313-5.288.66Zm43.956 32.388c-1.818-1.652-7.106-3.8-11.898-4.626-5.618-1.157-8.262-2.48-7.932-3.966 1.322-6.61-3.966-11.568-14.542-13.386-6.444-.991-7.105-4.461-.826-3.635 3.14.496 4.627-.496 5.949-3.636 2.644-5.618 4.627-5.453 5.784.496.991 4.958 6.114 11.733 8.923 11.733.992 0 1.653-2.975 1.653-6.61 0-4.792.66-6.28 2.313-5.619 1.322.496 2.644-.66 3.305-3.14.826-3.304 1.818-3.8 5.123-3.139 2.313.33 4.13 1.818 4.13 3.14 0 1.983 1.488 2.313 6.61 1.652 6.115-.826 6.941-.33 6.941 3.801 0 .496-.496 3.636-.991 7.271-1.322 6.775-.827 6.94 7.27 3.635 1.818-.826 2.48.166 2.48 3.966 0 4.462-.992 5.453-10.411 10.08-10.246 4.958-10.576 4.958-13.881 1.983Zm65.273 56.846c-1.157.33-3.47.33-4.958 0-1.652-.496-.66-.827 1.983-.827 2.81 0 3.966.33 2.975.827Zm90.886-70.892c-.661 2.975-4.627 5.619-14.707 10.41-11.567 5.62-14.377 7.768-18.673 14.543-6.61 10.08-16.03 19.499-23.3 23.3-6.775 3.47-14.377 5.122-46.104 10.741-13.055 2.313-24.457 4.462-25.614 4.627-.991.165-1.652-.496-1.487-1.653.33-1.156-3.14-4.13-7.436-6.61-6.775-4.13-7.27-4.626-3.8-5.122 3.14-.496 3.635-1.322 2.974-4.958q-.826-4.461 6.61-3.8c9.254.66 9.254-3.14 0-5.454-4.792-1.156-6.114-2.313-6.114-5.288 0-1.982-.992-3.965-1.983-4.461-1.157-.33 1.156-2.479 5.288-4.627 6.279-3.305 9.584-3.966 21.151-3.636 7.436.166 13.55-.495 13.55-1.156 0-1.488 7.106-1.157 15.369.991 2.974.661 5.453.33 7.436-1.322 1.487-1.322 8.427-3.8 15.203-5.453 12.063-2.81 23.63-7.932 37.18-16.36 3.636-2.313 8.097-3.8 9.915-3.47 1.818.33 6.114 1.157 9.584 1.653 6.445.991 6.61 1.157 4.958 7.105Z" style="fill: rgb(9, 81, 60); transform-origin: 0px 0px; translate: none; rotate: none; scale: none;" data-svg-origin="97.93702697753906 395.468994140625" transform="matrix(1,0,0,1,0,0)"/></svg>